<svg xmlns="http://www.w3.org/2000/svg" xml:space="preserve" viewBox="0 0 110.7 122.9">
    <path style="fill:currentColor"
        d="M81.8 70.8a22.7 22.7 0 0 1 19 35.2l9.9 10.7-6.8 6.2-9.5-10.5a22.6 22.6 0 0 1-28.7-2.8 22.6 22.6 0 0 1 0-32.1q6.5-6.5 16.1-6.7m-62-13.7c-1.5 0-2.7-1.3-2.7-3 0-1.5 1.2-2.8 2.7-2.8h22.6c1.5 0 2.7 1.3 2.7 2.9S43.9 57 42.4 57zm65-39.5h9.6q2.9 0 4.8 2 1.9 1.9 2 4.8v37c-.2 2.1-5.5 2.1-5.9 0v-37l-.3-.7-.7-.3h-9.5v38c-.5 2-4.8 2.2-5.8 0V6.8l-.2-.7-.7-.3H6.7l-.6.3-.3.7v80.6q0 .4.3.6l.6.3h42.6c2.9.3 3 5.4 0 5.8H22V105q0 .5.2.7.3.3.7.3h26.3c2 .2 2.8 5 0 5.8H23q-3 0-4.8-2-2-1.9-2-4.8V94.1H6.8q-3 0-4.8-2-1.9-1.9-2-4.7V6.8q.1-3 2-4.8Q4 .1 6.8 0H78q3 .1 4.8 2 1.9 2 2 4.8zm-65 8.4c-1.5 0-2.7-1.3-2.7-2.8 0-1.7 1.2-3 2.6-3H65c1.5 0 2.7 1.4 2.7 3S66.5 26 65 26zm0 15.6c-1.5 0-2.7-1.3-2.7-3 0-1.5 1.2-2.8 2.6-2.8H65c1.5 0 2.7 1.3 2.7 2.9s-1.2 2.9-2.7 2.9zm74 39.9a17 17 0 1 0-24 24.1 17 17 0 1 0 24-24.1" />
</svg>