<svg xmlns="http://www.w3.org/2000/svg" xml:space="preserve" viewBox="0 0 122.9 101.9" >
    <path style="fill:currentColor" fill-rule="evenodd"
        d="M64.4 12.1q-4-1.5-8.3-1.5-6.4 0-10.5 4L21.8 38.4l2.4 2.5-9 9.1L0 34.8l9-9 2.8 2.7L35.5 4.8Q40.5 0 46 0q9.4 0 18.4 12.1m36.1-6.7q4 0 7.4 1.3L102 13c-13.3 14.5 1.8 22.8 15 12.9l5.2-3.8a22.4 22.4 0 0 1-32.7 25L78.6 58.8 109.3 88 95.4 102l-29-30.3-19 20.2a8.3 8.3 0 1 1-13.7-9.4q1-1.2 2.2-2l21.4-18.3L31 34.5l11-11L70.5 51l11.8-10.2a22.3 22.3 0 0 1 18.2-35.3m-71.9 5L17.7 21.2l-2-2 10.8-11z"
        clip-rule="evenodd" />
</svg>