<svg xmlns="http://www.w3.org/2000/svg" data-name="Layer 1" viewBox="0 0 122.88 110.73" style="fill:currentColor">
    <path
        d="M51 7a2.2 2.2 0 0 1-.81-.13c-7.24 3.24-13.1 10.36-14.7 22.21a2.46 2.46 0 0 1-2.77 2.06 2.4 2.4 0 0 1-2.15-2.65c1.86-13.81 8.94-22.16 17.7-26a30.5 30.5 0 0 1 14-2.44A34.1 34.1 0 0 1 76 3.81c9 4.65 15.8 13.33 16.29 24.9a2.48 2.48 0 0 1-4.95.19c-.41-9.69-6.16-17-13.69-20.89l-1-.48a2.6 2.6 0 0 1-.89.14c-2.26-.06-2.85 4-3 9.38-.07 2.42 0 5.1 0 7.83 0 2.17.08 4.39.08 5.86a2.47 2.47 0 0 1-4.93 0c0-2.4 0-4.11-.06-5.79-.06-2.79-.11-5.51-.05-8 .13-4.89.71-9 2.5-11.52a28 28 0 0 0-4.3-.61 27.4 27.4 0 0 0-5.51.24c1.65 2.55 2.21 6.63 2.33 11.43.07 2.59 0 5.42 0 8.32 0 1.73-.06 3.49-.06 5.93a2.41 2.41 0 1 1-4.81 0c0-1.53 0-3.78.09-6 0-2.84.1-5.62 0-8.13-.13-5.55-.73-9.66-3-9.6Zm39.13 32.27c.19.46.37.93.54 1.4.27.71.51 1.44.72 2.18v.08c.26 1.4.43 2.12.54 2.56a5 5 0 0 1 .15.8 7 7 0 0 1 0 1v2.55a18 18 0 0 1-.4 2.65 28 28 0 0 1-.78 2.81 13.8 13.8 0 0 1-2.33 4.27A5.43 5.43 0 0 1 86 61.38l-.18.64-.3 1.19A29.45 29.45 0 0 1 76.36 78a21.87 21.87 0 0 1-14.83 5.29 22.62 22.62 0 0 1-14.91-5.76c-4.41-3.88-7.6-9.43-9.56-15.67v-.09c-.07-.25-.17-.55-.27-.85v-.15a4.7 4.7 0 0 1-2.24-1.16 9.7 9.7 0 0 1-2.21-3.12 19 19 0 0 1-1.08-3 20 20 0 0 1-.59-3.18 16.1 16.1 0 0 1 .6-5.62A36 36 0 0 1 32.82 40c-.4-.22-.79-.45-1.16-.68a14 14 0 0 1-5.41-5.66l4.51-2a9.3 9.3 0 0 0 3.61 3.65c5.51 3.44 15.21 5.1 25.23 5.13s20.38-1.61 27-4.74c2.61-1.24 4.56-2.67 5.56-4.27l4.26 2.44a16.2 16.2 0 0 1-6.27 5.41ZM37.8 42.11a9.1 9.1 0 0 0-1.84 3.39 11.2 11.2 0 0 0-.77 4.23 19.6 19.6 0 0 0 .5 2.65 13.7 13.7 0 0 0 .83 2.29v.07a6.3 6.3 0 0 0 1.28 1.87.9.9 0 0 0 .66.31 1.72 1.72 0 0 1 1.37.15 1.93 1.93 0 0 1 .85 1c.21.64.35 1.09.48 1.5s.2.65.29 1a25.46 25.46 0 0 0 10 13.88 19.6 19.6 0 0 0 10.47 3.3 17.86 17.86 0 0 0 10.26-3.08c3.81-2.57 7-6.77 8.78-12.68.18-.72.38-1.42.61-2.19l.23-.83a2.06 2.06 0 0 1 .7-.97h.06a1.65 1.65 0 0 1 1.26-.27c.25 0 .58-.22.94-.66a10.8 10.8 0 0 0 1.63-3.13 21 21 0 0 0 .67-2.35 15 15 0 0 0 .35-2.14 6.8 6.8 0 0 0-.67-3.43 18 18 0 0 1-.62-1.78c-.14-.43-.28-.83-.42-1.19s-.3-.79-.46-1.16a1.1 1.1 0 0 1-.07-.39c-12.75 4.47-33.91 5.29-47.39.7Zm85.08 68.62c-1.39-18.12 2.16-13.71-13-19.4-7.57-2.84-17.25-6.44-24.21-10.77l-13 30.17ZM0 110.73C1.39 92.61-2.16 97 13 91.33c7.57-2.84 17.25-6.44 24.21-10.77l13 30.17Zm65.08-14.34h1.81a3 3 0 0 0 3-3v-4.82a3 3 0 0 0-3-3H56.11a3 3 0 0 0-3 3v4.84a3 3 0 0 0 3 3h1.83l-3.51 14.34h14.05l-3.4-14.34Z" />
</svg>