<svg xmlns="http://www.w3.org/2000/svg" data-name="Layer 1" viewBox="0 0 122.9 94.7">
    <path style="fill:currentColor" fill-rule="evenodd"
        d="M22 0a10.4 10.4 0 1 1-10.4 10.4A10.4 10.4 0 0 1 21.9 0m-7.4 22.7 3.7 9.7h.4l1.8-6.2-1-1c-.8-1.1-.5-2.3.8-2.5h3.1c1.2.3 1.4 1.5.7 2.5l-1 1 1.9 6.2h.4l3.3-9.7.5.4a7 7 0 0 1 2.7.8 5 5 0 0 1 3 2l7.9 11 5.6 1V16.7h-8a1.9 1.9 0 1 1 0-3.7h37.2V7.5a1.9 1.9 0 0 1 3.7 0V13h39.5a1.9 1.9 0 1 1 0 3.7h-8v46h8.2a1.9 1.9 0 0 1 0 3.7H81.6V75l.2.2 11.6 11a1.9 1.9 0 1 1-2.5 2.7L81.5 80v8a1.9 1.9 0 0 1-3.7 0v-8.3l-9.7 9.2a2 2 0 0 1-2.6 0 2 2 0 0 1 0-2.7l11.7-11 .6-.4v-8.3H40.4a1.9 1.9 0 0 1 0-3.8h8V47.8L39 46a5 5 0 0 1-3.1-1.9l-4-5.4-.2 15.9 4 25.2 1.5 8.7c.8 5.7-8 9.2-10.2 1.6l-5.2-30.4-5.2 30.9c-1 5.6-10.2 5.6-10.2-1.2l5.8-34.6-.5-18.7-1.2 2a13 13 0 0 0-1 4.5l-.8 11c-.4 5.6-8.9 6-8.8-.1q0-4.2.6-8.4c.6-5.4.7-8.8 3.8-14.2a18 18 0 0 1 4.5-5.2 12 12 0 0 1 4.9-2.3zm37.5 15.6 10.5-11a2.5 2.5 0 1 1 3.6 3.4L56.3 41a4.9 4.9 0 0 1-4.2 7.5v14.2h57.1v-46h-57z" />
</svg>