<svg xmlns="http://www.w3.org/2000/svg" xml:space="preserve" >
    <path style="fill:currentColor" fill-rule="evenodd"
        d="M64.406 12.143c-2.672-1.042-5.431-1.586-8.276-1.586-4.279 0-7.798 1.369-10.557 4.084L21.765 38.427l2.477 2.499-9.037 9.101L0 34.799l9.036-9.037 2.802 2.737L35.515 4.844C38.773 1.608 42.271 0 46.007 0c6.278 0 12.404 4.041 18.399 12.143m36.129-6.735c2.588 0 5.072.441 7.384 1.25l-5.874 6.358c-13.345 14.437 1.715 22.79 14.986 12.879l5.119-3.822c.475 1.813.729 3.717.729 5.679 0 12.341-10.003 22.345-22.345 22.345a22.24 22.24 0 0 1-11.066-2.929L78.616 58.689q15.322 14.667 30.646 29.33l-13.858 13.858a68940 68940 0 0 1-28.982-30.242L47.394 91.833a8.33 8.33 0 1 1-13.661-9.444l-.012-.012.073-.063a8.4 8.4 0 0 1 2.132-1.828L57.327 62.14 30.941 34.504 41.89 23.556c10.157 9.756 18.402 17.582 28.572 27.324l11.864-10.172a22.25 22.25 0 0 1-4.136-12.955c0-12.342 10.003-22.345 22.345-22.345M28.63 10.362 17.747 21.245l-2.086-2.085L26.544 8.276z"
        clip-rule="evenodd" />
</svg>