<svg xmlns="http://www.w3.org/2000/svg" xml:space="preserve" viewBox="0 0 106.53 122.88">
    <path
        d="M42.09 16.99c.43.12.91.07 1.43-.13L42.67 12c.32-1.22.81-2.17 1.46-2.87.68-.73 1.53-1.18 2.54-1.38 1.33-.1 1.73.88 3.07 1.74 4.08 2.6 7.52 3.48 12.56 3.55l-1.04 4.2c.33.14.73.18 1.13.11.81-.07 1.3 0 1.42.26.19.38.02 1.17-.55 2.45l-2.75 4.53c-1.02 1.68-2.06 3.37-3.37 4.59-1.25 1.17-2.79 1.95-4.9 1.95-1.94 0-3.42-.76-4.63-1.86-1.27-1.16-2.29-2.74-3.27-4.3l-2.45-3.89-.01-.02c-.74-1.11-1.13-2.06-1.15-2.79-.01-.24.03-.45.11-.62.07-.15.18-.27.32-.37.23-.15.53-.25.93-.29m2.25 18.31 4.38 12.87 2.2-7.64-1.08-1.18c-.49-.71-.59-1.33-.32-1.86.58-1.16 1.79-.94 2.92-.94 1.18 0 2.64-.22 3.02 1.26.12.5-.03 1.01-.38 1.55L54 40.54l2.2 7.64 3.96-12.87c2.86 2.57 11.32 3.09 14.47 4.84 1 .56 1.89 1.26 2.62 2.22 1.1 1.45 1.77 3.34 1.95 5.75l.66 10.41c-.16 1.7-1.12 2.68-3.02 2.83H27.66c-1.9-.14-2.86-1.12-3.02-2.83l.66-10.41c.18-2.4.86-4.3 1.96-5.75.72-.96 1.62-1.66 2.62-2.22 3.14-1.76 11.6-2.28 14.46-4.85M58 63.95v11.8h43.17v22.41h-8.61v-13.8H58v12.42h-9.18V84.36H13.96v13.8H5.35V75.75h43.47v-11.8zm38.87 39.62c5.33 0 9.65 4.32 9.65 9.66s-4.32 9.65-9.65 9.65-9.66-4.32-9.66-9.65 4.33-9.66 9.66-9.66m-87.22 0c5.33 0 9.66 4.32 9.66 9.66s-4.32 9.65-9.66 9.65S0 118.56 0 113.22s4.32-9.65 9.65-9.65m43.76 0c5.33 0 9.65 4.32 9.65 9.66s-4.32 9.65-9.65 9.65-9.65-4.32-9.65-9.65 4.32-9.66 9.65-9.66m10.58-87.66.15-6.26c-.18-2.58-1.04-4.52-2.39-5.99C58.42.05 52.19-.88 47.49.82c-.79.29-1.54.65-2.22 1.08-1.94 1.24-3.51 3.03-4.13 5.27-.15.53-.25 1.06-.3 1.58-.1 2.19-.04 4.81.11 6.9-.23.09-.45.19-.64.32-.39.26-.68.61-.87 1.01-.18.39-.26.83-.25 1.31.03 1.02.5 2.25 1.4 3.6l2.45 3.89c1.03 1.64 2.12 3.32 3.54 4.62 1.48 1.35 3.28 2.27 5.68 2.28 2.57.01 4.44-.94 5.97-2.37 1.46-1.37 2.56-3.15 3.64-4.92l2.79-4.59c.02-.03.03-.06.05-.09.77-1.75.93-2.98.53-3.8-.27-.5-.68-.83-1.25-1"
        style="fill-rule:evenodd;clip-rule:evenodd;fill:currentColor" />
</svg>