<svg xmlns="http://www.w3.org/2000/svg" xml:space="preserve" viewBox="0 0 113.07 122.88">
    <path style="fill:currentColor"
        d="M24.83 58.39 4.39 100.6l4.68 14.59 25.4-50.63a22.54 22.54 0 0 1-9.03-5.53c-.2-.21-.41-.42-.61-.64m7.76-36.16V8.83c0-2.43.99-4.64 2.59-6.24C36.79.99 39 0 41.43 0s4.64.99 6.24 2.59 2.59 3.81 2.59 6.24v13.39c2.69 1.14 5.11 2.79 7.15 4.83a22.53 22.53 0 0 1 6.62 15.98c0 4.22-1.16 8.18-3.18 11.56l1.52 3.14 15.17-43.36c.21-.6.64-1.05 1.17-1.31s1.15-.31 1.76-.1l31.06 10.87a2.297 2.297 0 0 1 1.41 2.92l-28.85 82.47a2.3 2.3 0 0 1-2.93 1.41l-1.35-.51-3.62 11.27a2.126 2.126 0 0 1-2.66 1.37c-.6-.19-1.05-.63-1.29-1.16l-8.58-17.1-13.56-4.72v-.01h-.01c-.59-.21-1.05-.63-1.3-1.16-.26-.53-.31-1.16-.1-1.76l4.57-13.06-9.18-18.3a23 23 0 0 1-5.34-.01l-28.17 56.13c-.24.53-.69.96-1.29 1.16-1.11.36-2.31-.25-2.66-1.37l-6.5-20.26c-.18-.52-.17-1.1.09-1.63l21.77-44.95a22.5 22.5 0 0 1-3.16-11.53c0-6.24 2.53-11.89 6.62-15.98 2.04-2.03 4.46-3.68 7.15-4.82m13.43-1.33V8.83c0-1.26-.52-2.41-1.35-3.24s-1.98-1.35-3.24-1.35-2.41.52-3.24 1.35-1.35 1.98-1.35 3.24V20.9c1.48-.31 3.02-.47 4.59-.47s3.1.17 4.59.47M58 58.42c-.19.21-.39.41-.59.61a22.56 22.56 0 0 1-9.06 5.54l6.86 13.67.01-.03 4.4 8.75-.04-.01 7.11 14.17.06.02 2.73 5.43-.07-.03 4.34 8.65 4.68-14.59-4.98-10.28-.03.04-1.41-2.91.05.02-7.45-15.38-.02-.01-4.2-8.69v-.01zM41.43 34.09c2.47 0 4.71 1 6.33 2.62a8.93 8.93 0 0 1 2.62 6.33c0 2.47-1 4.71-2.62 6.33a8.93 8.93 0 0 1-6.33 2.62c-2.47 0-4.71-1-6.33-2.62a8.93 8.93 0 0 1-2.62-6.33c0-2.47 1-4.71 2.62-6.33a8.93 8.93 0 0 1 6.33-2.62m3.32 5.62c-.85-.85-2.03-1.38-3.33-1.38s-2.48.53-3.33 1.38-1.38 2.03-1.38 3.33.53 2.48 1.38 3.33 2.03 1.38 3.33 1.38 2.48-.53 3.33-1.38 1.38-2.03 1.38-3.33-.53-2.48-1.38-3.33m9.66-9.65c-3.32-3.32-7.91-5.38-12.98-5.38s-9.66 2.05-12.98 5.38c-3.32 3.32-5.38 7.91-5.38 12.98s2.06 9.66 5.38 12.98 7.91 5.38 12.98 5.38 9.66-2.06 12.98-5.38c.77-.77 1.48-1.61 2.1-2.51.09-.18.2-.35.34-.5 1.86-2.87 2.94-6.29 2.94-9.97 0-5.07-2.06-9.66-5.38-12.98m10.56 33.03 3.07 6.34 1.96.69c1.1.38 1.73 1.47 1.4 2.41-.2.57-.71.97-1.32 1.1l12.54 25.88c.1.21.16.42.19.63l25.53-72.96-27.45-9.58-2.68 7.66 14.1 4.93c1.1.39 1.72 1.46 1.39 2.41-.33.94-1.49 1.4-2.59 1.01l-14.1-4.93-3.8 10.83 6.68 2.34c1.1.38 1.73 1.47 1.4 2.41s-1.5 1.4-2.6 1.02l-6.68-2.33-3.84 10.98 14.1 4.93c1.1.39 1.73 1.47 1.4 2.41s-1.5 1.4-2.6 1.02l-14.1-4.93zM60.94 99.1l-5.05-10.06c-2.49 7.12 1.47-4.22-2.58 7.39z" />
</svg>