<svg xmlns="http://www.w3.org/2000/svg" fill-rule="evenodd" clip-rule="evenodd" image-rendering="optimizeQuality" shape-rendering="geometricPrecision" text-rendering="geometricPrecision" viewBox="0 0 512 512"><path fill="#4d4d4d" fill-rule="nonzero" d="M256 0c70.7 0 134.7 28.7 181 75a255 255 0 0 1 75 181c0 70.7-28.7 134.7-75 181a255 255 0 0 1-181 75 255 255 0 0 1-181-75A255 255 0 0 1 0 256c0-70.7 28.7-134.7 75-181A255 255 0 0 1 256 0"/><path fill="#fff" fill-rule="nonzero" d="M256 19.6c65.3 0 124.4 26.5 167.2 69.2s69.2 102 69.2 167.2-26.5 124.4-69.2 167.2A236 236 0 0 1 256 492.4a236 236 0 0 1-167.2-69.2c-42.7-42.8-69.2-102-69.2-167.2S46.1 131.6 88.8 88.8A236 236 0 0 1 256 19.6"/><path fill="#74acdf" fill-rule="nonzero" d="M256 39.6a216.4 216.4 0 1 1 0 432.8 216.4 216.4 0 0 1 0-432.8"/><path fill="#fff" fill-rule="nonzero" d="M55.5 337.5h401a216 216 0 0 0-9.3-183H64.8a216 216 0 0 0-9.3 183"/><path fill="#f6b40e" fill-rule="nonzero" d="m252.5 247.4 31.3 68s.5 1.4 1.4 1 .3-1.6.3-1.6l-26-70.2zm6.2 23.6c-.3 10.4 6 16 5.2 25.3s4.2 14.5 5.4 18c1.2 3.7-1.3 5.8-.2 6.3 1 .5 3.4-2.3 2.6-7.4s-4.6-6.6-3.7-18c.9-11.2-4.6-13.8-3.3-24.1zm0 0"/><path fill="#85340a" fill-rule="nonzero" d="m253.1 247.2 11 24v-.2l1.2.2-.2 2.2 19.2 41.8.6.7q.4-.5.2-.7c-.6-.6-23.7-63.8-26.2-70.4l1.2-.5 26 70.3c.1.5.4 2-.7 2.4-1.9.8-2-1-2-1-1-1-16.2-35-18.1-39.4q.4 3.2 1.5 6c1 3.5 2.3 7 1.8 12.7-.6 7.3.9 10.5 2.1 13.2a16 16 0 0 1 1.6 4.6q.5 4-.7 6.2l-.9 1.3q-.6.6-1.1.7l-.8-.1c-.9-.5-.7-1.2-.3-2.2s.8-2.5.2-4.4q-.5-1.4-1.5-3.2c-2-3.5-4.5-8.2-4-15.1.5-4.5-.9-8.2-2.3-12-1.5-4-3-8-2.8-13.3h1.2c-.1 5.1 1.3 9 2.7 12.9s3 7.7 2.5 12.5c-.6 6.5 1.9 11 3.7 14.4q1.2 2 1.7 3.4c.7 2.3.1 4-.2 5.1l-.3.8.4-.3q.4-.4.7-1 1-1.9.6-5.5-.4-2.4-1.5-4.3a23 23 0 0 1-2.2-13.8c.4-5.5-.7-8.9-1.8-12.1-1-2.9-1.8-5.6-1.7-9.5l-12-26z"/><path fill="#f6b40e" fill-rule="nonzero" d="m252.3 246 2.8 74.8s0 1.4 1 1.4c.8 0 .8-1.4.8-1.4l2.9-74.8zm-3.4 24.2c-4.3 9.4-.6 17-4.9 25.3-4.3 8.2-1.6 15-1.9 18.8-.3 3.7-3.3 4.8-2.6 5.7.8.8 4-1 5.3-6s-1.7-7.8 3.4-17.9c5.2-10 1-14.6 6.3-23.6zm0 0"/><path fill="#85340a" fill-rule="nonzero" d="m252.9 246 1 26.3v-.1l1 .6-1 2 1.8 46s0 .8.3.8.3-.8.3-.8l2.9-74.8h1.2l-2.8 74.8s0 2-1.6 2c-1.5 0-1.5-2-1.5-2l-1.7-43q-.7 3.3-.9 6.2c-.2 3.6-.5 7.3-3.1 12.4-3.4 6.5-3.2 10-3.1 13q.2 2.2-.3 4.8-1.2 4-3 5.5l-1.4.9q-.8.3-1.3.1l-.6-.3c-.7-.8-.2-1.4.5-2.2s1.8-2 2-4l-.3-3.5c-.4-4-1-9.3 2.2-15.5 2-4 2.2-7.9 2.4-12s.3-8.5 2.5-13.3l1 .5a32 32 0 0 0-2.3 12.9c-.2 4.2-.3 8.2-2.5 12.5-3 5.8-2.5 11-2 14.7q.1 2.2.1 3.8c-.1 2.4-1.4 3.8-2.2 4.7l-.5.6.6-.1 1-.7q1.6-1.3 2.6-4.9.4-2.3.3-4.5c-.2-3.2-.3-6.8 3.2-13.6 2.5-4.9 2.8-8.4 3-11.9.2-3 .5-5.8 2-9.3l-1-28.6z"/><path fill="#f6b40e" fill-rule="nonzero" d="m252.5 244.6-26 70.2s-.5 1.3.3 1.6c1 .4 1.4-1 1.4-1l31.3-68zm-12.3 21c-7.6 7-7 15.6-14.2 21.5s-7.2 13.3-9 16.6c-1.6 3.4-4.9 3.2-4.5 4.3s4 .8 7-3.4 1.5-8 10.1-15.3 6.6-13 14.8-19.4zm0 0"/><path fill="#85340a" fill-rule="nonzero" d="m253.1 244.8-9.1 24.7v-.1l.8 1-1.7 1.4c-1.5 4.1-15.8 43-16.2 43.4 0 0-.2.5.2.7l.6-.7 31.2-68 1.1.5c-3.2 7-30.2 67-31.3 68.2 0 0-.2 1.9-2 1-1.2-.4-.9-1.8-.7-2.3l15-40.4a31 31 0 0 0-3.3 5.3 29 29 0 0 1-7.7 10.3c-5.6 4.7-6.7 8-7.8 10.8q-.6 2.2-2.1 4.4a11 11 0 0 1-4.9 3.9l-1.6.3q-.8 0-1.2-.4l-.5-.6c-.3-1 .3-1.3 1.4-1.8.9-.4 2.3-1.1 3.2-3q.7-1.3 1.2-3.3c1-3.8 2.6-9 8-13.4 3.4-3 5-6.5 6.7-10.2 1.7-3.8 3.5-7.7 7.4-11.3l.8.9a32 32 0 0 0-7.1 11 27 27 0 0 1-7.1 10.5c-5 4.2-6.5 9.2-7.6 12.8q-.5 2.2-1.2 3.6c-1 2.2-2.7 3-3.8 3.5l-.7.3.5.1q.6 0 1.2-.2a10 10 0 0 0 4.3-3.5 15 15 0 0 0 2-4c1-3 2.3-6.4 8.1-11.4 4.2-3.5 5.9-6.7 7.4-9.8 1.4-2.7 2.7-5.2 5.4-7.9l10-26.8z"/><path fill="#f6b40e" fill-rule="nonzero" d="m253.4 243.3-51 55s-1 1-.3 1.6 1.7-.3 1.7-.3l54.9-51zm-19.5 14.8c-9.7 3.6-12.5 11.7-21.4 14.4s-11.7 9.5-14.6 12c-2.8 2.4-5.8 1-5.8 2.1-.1 1.2 3.4 2.3 7.8-.4s4.4-6.8 15.2-10.3 11-9.6 21-12.3zm0 0"/><path fill="#85340a" fill-rule="nonzero" d="m253.8 243.8-18 19.3h.2l.3 1.1-2.1.7-31.3 33.8s-.6.5-.4.8c.3.2.8-.4.8-.4l55-50.9.8.9-54.9 50.9s-1.4 1.4-2.5.3.3-2.5.3-2.5l29.3-31.6q-2.9 1.8-5 3.8c-2.8 2.3-5.6 4.7-11 6.5-7 2.2-9.3 4.8-11.4 7a16 16 0 0 1-3.7 3.2 11 11 0 0 1-6 1.8l-1.5-.4q-.8-.3-1-.8l-.2-.7c0-1 .8-1 1.9-1.1s2.6-.2 4.1-1.5q1.1-1 2.4-2.7c2.5-3 5.8-7.3 12.5-9.4 4.3-1.3 7.1-4 10.1-6.7 3-2.9 6.3-5.8 11.2-7.7l.4 1.2c-4.7 1.7-7.8 4.6-10.8 7.4s-6 5.6-10.6 7c-6.3 2-9.5 6-11.9 9q-1.3 1.7-2.5 2.8a8 8 0 0 1-4.8 1.8h-.8l.4.3 1.2.3q2 .1 5.3-1.6a15 15 0 0 0 3.4-3c2.2-2.3 4.6-5 11.9-7.4 5.2-1.7 8-4 10.6-6.2 2.2-2 4.4-3.9 8-5.2l19.4-21z"/><path fill="#85340a" fill-rule="nonzero" d="M260.7 272.8c.5 10 6.2 14.3 5 23.4 2.5-7.2-3.4-12.7-3-23.3zm-6.4-26 21.4 46.8-18-48.2zm0 0"/><path fill="#85340a" fill-rule="nonzero" d="M250.1 272.6c-3.3 9.3.2 15.6-4.3 23.5 5-5.7 1.7-13 6-22.7zm4-26.5 1.9 51.4 1.8-51.4zm0 0"/><path fill="#85340a" fill-rule="nonzero" d="M240.4 268.3c-6.7 7.4-5.8 14.5-13 20 6.8-3.3 6.6-11.3 14.3-18.6zm13.8-23-18 48.2 21.5-46.7zm0 0"/><path fill="#85340a" fill-rule="nonzero" d="M233 260.6c-9 4.3-10.8 11.2-19.6 13.6 7.5-.5 10.4-8 20.3-11.8zm21.6-15.9-35 37.7 37.6-35zm0 0"/><path fill="#f6b40e" fill-rule="nonzero" d="m254.6 242.5-68 31.3s-1.4.5-1 1.4 1.6.3 1.6.3l70.2-26zm-23.6 6.2c-10.4-.4-16 6-25.3 5.2-9.3-.9-14.5 4.2-18 5.4-3.7 1.2-5.8-1.3-6.3-.2-.5 1 2.3 3.3 7.4 2.6 5.1-.8 6.6-4.6 18-3.7 11.2.9 13.8-4.6 24.1-3.3zm0 0"/><path fill="#85340a" fill-rule="nonzero" d="m254.8 243-24 11h.2l-.1 1.3-2.3-.2-41.8 19.2-.7.6c.2.4.7.2.7.2.6-.6 63.8-23.7 70.4-26.2l.5 1.1-70.2 26c-.6.2-2 .5-2.5-.6-.7-1.9 1.1-2 1.1-2 1-1 35-16.2 39.3-18.2q-3.2.6-6 1.6c-3.5 1-7 2.2-12.7 1.8-7.3-.6-10.4.8-13.1 2.1q-2.1 1.1-4.7 1.6-4 .5-6.2-.7l-1.3-1q-.6-.5-.7-1l.1-.8c.5-1 1.2-.7 2.3-.3s2.4.8 4.3.2q1.4-.5 3.2-1.6c3.5-1.9 8.2-4.5 15.1-3.8 4.5.4 8.2-1 12-2.4 4-1.5 8-3 13.3-2.8v1.2c-5-.2-9 1.3-12.8 2.7-4 1.5-7.8 2.9-12.6 2.5-6.5-.6-11 1.9-14.4 3.7l-3.4 1.7c-2.3.7-4 .1-5.1-.3l-.8-.3q0 .3.3.5l1 .7q1.8 1 5.5.6 2.4-.5 4.3-1.5c2.9-1.3 6.2-2.9 13.8-2.2 5.5.4 8.9-.7 12.2-1.8 2.8-1 5.5-1.8 9.4-1.7l26-12z"/><path fill="#f6b40e" fill-rule="nonzero" d="m256 242.2-74.8 2.9s-1.4 0-1.4.9 1.4 1 1.4 1l74.8 2.7zm-24.2-3.3c-9.4-4.3-17-.6-25.3-4.9-8.2-4.3-15-1.6-18.8-1.9-3.7-.3-4.8-3.4-5.6-2.6-1 .8.8 4 5.8 5.3s8-1.8 18 3.4 14.6 1 23.6 6.2zm0 0"/><path fill="#85340a" fill-rule="nonzero" d="m256 242.9-26.3 1h.1l-.6 1-2-1-46 1.8s-.8 0-.8.3.8.3.8.3l74.8 2.8v1.3l-74.8-2.9s-2 0-2-1.5c0-1.6 2-1.6 2-1.6l43-1.6q-3.2-.7-6.2-.9c-3.6-.3-7.3-.5-12.4-3.2-6.5-3.3-10-3.1-13-3q-2.2.2-4.8-.3c-2.7-.7-4.5-2-5.5-3l-.9-1.4q-.3-.8-.1-1.3 0-.4.4-.6c.7-.7 1.3-.2 2.1.5s2 1.8 4 1.9q1.5 0 3.6-.2c3.9-.5 9.2-1 15.4 2.2 4 2 8 2.2 12 2.4 4.2.1 8.5.3 13.3 2.5l-.5 1a32 32 0 0 0-12.9-2.3c-4.2-.2-8.2-.3-12.5-2.5-5.8-3.1-11-2.5-14.7-2.1q-2.2.3-3.8.2a8 8 0 0 1-4.7-2.2l-.5-.5v.5l.7 1q1.3 1.6 4.9 2.7 2.3.4 4.5.3c3.2-.2 6.8-.3 13.6 3.2 4.9 2.5 8.5 2.7 11.9 3 3 .2 5.8.4 9.4 2l28.5-1z"/><path fill="#f6b40e" fill-rule="nonzero" d="m257.4 242.5-70.2-26s-1.3-.5-1.6.3 1 1.4 1 1.4l68 31.3zm-21-12.3c-7-7.6-15.6-7.1-21.5-14.2s-13.3-7.2-16.6-9-3.2-5-4.3-4.5-.7 4 3.4 7 8 1.5 15.3 10.1 13.1 6.6 19.4 14.8zm0 0"/><path fill="#85340a" fill-rule="nonzero" d="m257.2 243.1-24.7-9.2.1.1-1 .8-1.4-1.7c-4.1-1.6-43-15.8-43.4-16.2 0 0-.5-.2-.7.2l.7.6 68 31.2-.5 1.1c-7-3.2-67-30.2-68.2-31.3 0 0-1.8-.2-1-2.1.4-1.1 1.8-.8 2.3-.6l40.4 14.9q-2.6-2-5.3-3.2a29 29 0 0 1-10.3-7.7c-4.7-5.6-8-6.7-10.8-7.8q-2.2-.6-4.4-2.1a11 11 0 0 1-3.9-4.9l-.3-1.6q0-.8.4-1.3l.6-.4c1-.3 1.3.3 1.8 1.3s1.2 2.4 3 3.3q1.3.6 3.3 1.2c3.8 1 9 2.5 13.4 7.9 3 3.5 6.5 5 10.2 6.8 3.8 1.7 7.7 3.5 11.3 7.4l-.9.8a32 32 0 0 0-11-7.1 27 27 0 0 1-10.5-7.1c-4.2-5-9.2-6.5-12.8-7.6q-2.2-.5-3.6-1.2c-2.2-1.1-3-2.7-3.5-3.8l-.3-.8-.1.6q0 .4.2 1.2a10 10 0 0 0 3.5 4.3 15 15 0 0 0 4 2c3 1 6.4 2.3 11.4 8.1 3.5 4.2 6.7 5.8 9.8 7.4 2.7 1.3 5.2 2.6 7.9 5.4l26.8 10z"/><path fill="#f6b40e" fill-rule="nonzero" d="m258.7 243.3-55-50.9s-1-1-1.6-.3.3 1.7.3 1.7l51 54.8zM243.9 224c-3.6-9.7-11.7-12.5-14.4-21.4s-9.5-11.7-12-14.6c-2.4-2.9-1-5.8-2.1-5.9-1.2 0-2.3 3.5.4 8s6.8 4.3 10.3 15c3.5 10.8 9.6 11.1 12.3 21.2zm0 0"/><path fill="#85340a" fill-rule="nonzero" d="m258.3 243.8-19.4-18v.2l-1.1.3-.7-2.1-33.7-31.3s-.6-.6-.9-.4c-.2.3.4.8.4.8l50.9 55-.9.8-50.9-55s-1.4-1.3-.3-2.4 2.5.3 2.5.3l31.6 29.3q-1.7-2.9-3.8-5a29 29 0 0 1-6.5-11c-2.2-7-4.8-9.4-7-11.4q-1.8-1.3-3.2-3.7a11 11 0 0 1-1.8-6q0-.9.4-1.5.3-.8.8-1 .4-.3.7-.3c1 .1 1 .8 1.2 2 0 1 .1 2.6 1.4 4.1q1 1 2.7 2.4c3 2.4 7.3 5.8 9.4 12.4 1.3 4.3 4 7.2 6.7 10.2 2.9 3 5.8 6.2 7.7 11.2l-1.2.4c-1.7-4.7-4.6-7.8-7.3-10.8-3-3-5.7-6-7.1-10.6-2-6.3-6-9.5-9-11.9l-2.8-2.5a8 8 0 0 1-1.8-4.9v-.7l-.3.4-.2 1.2q-.2 2 1.5 5.3a15 15 0 0 0 3 3.4c2.4 2.1 5 4.6 7.4 11.9 1.7 5.2 4 8 6.2 10.5 2 2.3 3.9 4.5 5.3 8L259 243z"/><path fill="#85340a" fill-rule="nonzero" d="M229.2 250.7c-10 .5-14.3 6.2-23.4 5 7.2 2.5 12.7-3.4 23.3-3zm26-6.4-46.7 21.4 48.1-18zm0 0"/><path fill="#85340a" fill-rule="nonzero" d="M229.4 240.1c-9.3-3.3-15.5.2-23.5-4.3 5.7 5 13 1.7 22.7 6zm26.5 4-51.3 1.9 51.3 1.8zm0 0"/><path fill="#85340a" fill-rule="nonzero" d="M233.7 230.4c-7.4-6.7-14.5-5.8-20-13 3.3 6.8 11.3 6.6 18.6 14.3zm23 13.8-48.2-18 46.7 21.5zm0 0"/><path fill="#85340a" fill-rule="nonzero" d="M241.4 223c-4.3-9-11.2-10.8-13.6-19.6.5 7.5 8 10.4 11.8 20.3zm15.9 21.6-37.6-35 35 37.6zm0 0"/><path fill="#f6b40e" fill-rule="nonzero" d="m259.5 244.6-31.3-68s-.5-1.4-1.4-1-.3 1.6-.3 1.6l26 70.2zm-6.2-23.6c.4-10.4-6-16-5.2-25.3.9-9.3-4.2-14.5-5.4-18-1.2-3.7 1.3-5.8.2-6.3-1-.6-3.3 2.3-2.6 7.4.8 5.1 4.7 6.6 3.7 18-.9 11.2 4.7 13.8 3.3 24.1zm0 0"/><path fill="#85340a" fill-rule="nonzero" d="m259 244.8-11-24v.2l-1.3-.2.2-2.2-19.2-41.8-.6-.7c-.4.2-.2.7-.2.7.5.5 23.8 63.9 26.2 70.4l-1.1.4-26-70.2c-.2-.5-.5-2 .6-2.4 1.9-.8 2 1 2 1 .8.8 16.3 35.3 18.2 39.4q-.6-3.2-1.6-6c-1-3.5-2.2-7-1.8-12.7.6-7.3-.8-10.5-2-13.2q-1.2-2-1.7-4.6-.5-4 .7-6.2.4-.9 1-1.3.5-.6 1-.7l.8.1c1 .5.7 1.2.3 2.2s-.8 2.5-.2 4.4q.5 1.4 1.6 3.2c1.9 3.5 4.5 8.2 3.8 15.1-.4 4.5 1 8.2 2.4 12 1.5 4 3 8 2.8 13.3h-1.2c.2-5.1-1.3-9-2.7-12.9s-2.9-7.7-2.5-12.5c.6-6.5-1.9-11-3.7-14.4l-1.7-3.4c-.7-2.3-.1-4 .3-5.2l.3-.7q-.2 0-.5.3l-.7 1q-1 1.8-.6 5.5.5 2.4 1.5 4.3c1.3 2.9 2.9 6.1 2.3 13.8-.5 5.5.6 8.9 1.7 12.1 1 2.9 1.8 5.6 1.7 9.5l12 26z"/><path fill="#f6b40e" fill-rule="nonzero" d="m259.8 246-2.8-74.8s0-1.4-1-1.4-1 1.4-1 1.4l-2.7 74.8zm3.3-24.2c4.3-9.4.6-17 4.9-25.3 4.3-8.2 1.6-15 1.9-18.8.3-3.7 3.4-4.8 2.6-5.7-.8-.8-4 .9-5.3 6s1.8 7.8-3.4 17.9c-5.1 10-1 14.6-6.2 23.6zm0 0"/><path fill="#85340a" fill-rule="nonzero" d="m259.2 246-1-26.3-.1.1-1-.6 1-2-1.8-46s0-.8-.3-.8-.3.8-.3.8l-2.8 74.8h-1.2l2.8-74.8s0-2 1.5-2c1.6 0 1.6 2 1.6 2l1.6 43q.8-3.2.9-6.2c.3-3.6.6-7.3 3.2-12.4 3.3-6.5 3.2-10 3-13q-.2-2.2.3-4.8c.7-2.7 2-4.5 3-5.5l1.4-.9q.8-.3 1.3-.1.4 0 .6.3c.7.8.2 1.4-.5 2.2s-1.7 2-1.9 4q0 1.5.2 3.5c.5 4 1 9.3-2.2 15.5-2 4-2.2 7.9-2.4 12s-.3 8.5-2.5 13.3l-1-.5c2-4.6 2.2-8.8 2.3-12.9.2-4.2.3-8.2 2.6-12.5 3-5.8 2.4-11 2-14.7q-.3-2.3-.2-3.8a8 8 0 0 1 2.2-4.7q.6-.5.5-.6l-.5.1-1 .7q-1.6 1.3-2.7 4.9-.4 2.3-.3 4.5c.2 3.2.3 6.8-3.1 13.6a28 28 0 0 0-3 11.9c-.3 3-.5 5.8-2.1 9.3l1 28.6z"/><path fill="#f6b40e" fill-rule="nonzero" d="m259.5 247.4 26-70.2s.6-1.3-.3-1.6-1.4 1-1.4 1l-31.3 68zm12.3-21c7.6-7 7.1-15.6 14.2-21.6 7.2-5.9 7.3-13.2 9-16.6 1.7-3.3 5-3.1 4.5-4.2-.3-1.1-4-.8-7 3.4s-1.5 8-10.1 15.3-6.6 13-14.8 19.4zm0 0"/><path fill="#85340a" fill-rule="nonzero" d="m259 247.2 9-24.7v.1l-.8-1 1.7-1.4c1.6-4.2 15.7-43 16.2-43.4 0 0 .2-.5-.1-.7l-.7.7-31.2 68-1.1-.5c3.4-7.3 29.9-66.7 31.3-68.2 0 0 .2-1.9 2.1-1 1.1.4.8 1.8.6 2.3l-14.9 40.4q2-2.6 3.2-5.4c1.6-3.1 3.3-6.5 7.7-10.2 5.6-4.7 6.8-8 7.8-10.8q.6-2.2 2.1-4.4 2.6-3.2 5-3.9l1.5-.3q.8 0 1.3.4.3.2.4.6c.3 1-.3 1.3-1.3 1.8s-2.4 1.1-3.3 3q-.6 1.3-1.2 3.3c-1 3.8-2.5 9-7.9 13.4a26 26 0 0 0-6.8 10.2 33 33 0 0 1-7.4 11.3l-.8-.9c3.7-3.4 5.4-7.2 7.1-11 1.8-3.8 3.5-7.5 7.1-10.5 5.1-4.2 6.5-9.2 7.6-12.8q.5-2.2 1.2-3.6c1.1-2.2 2.7-3 3.8-3.5l.8-.3-.6-.2-1.2.3a10 10 0 0 0-4.3 3.4 15 15 0 0 0-2 4.1c-1 3-2.3 6.4-8.1 11.3a28 28 0 0 0-7.4 9.9 26 26 0 0 1-5.4 7.9l-10 26.7z"/><path fill="#f6b40e" fill-rule="nonzero" d="m258.7 248.7 50.9-55s1-1 .3-1.6-1.6.3-1.6.3l-55 51zm19.4-14.8c9.7-3.6 12.5-11.7 21.4-14.4s11.7-9.5 14.6-12c2.9-2.4 5.8-1 5.9-2.1 0-1.2-3.5-2.3-8 .4-4.3 2.6-4.3 6.8-15 10.3-10.8 3.5-11.1 9.6-21.2 12.3zm0 0"/><path fill="#85340a" fill-rule="nonzero" d="m258.2 248.2 18-19.3h-.2l-.3-1.1 2.1-.7 31.3-33.8s.6-.5.4-.8c-.2-.2-.8.4-.8.4l-55 50.9-.8-.9 55-50.9s1.4-1.4 2.4-.3c1.1 1-.3 2.5-.3 2.5l-29.3 31.6q2.9-1.8 5-3.8c2.8-2.3 5.6-4.7 11-6.5 7-2.2 9.4-4.8 11.4-7q1.4-1.8 3.7-3.2 3.5-2 6-1.8l1.6.4q.6.3 1 .8l.2.7c0 1-.8 1-2 1.1-1 .1-2.6.2-4.1 1.5q-1 1-2.4 2.7c-2.4 3-5.8 7.3-12.4 9.3-4.3 1.4-7.2 4-10.2 6.8-3 2.9-6.2 5.8-11.2 7.7l-.4-1.2c4.7-1.7 7.8-4.6 10.8-7.4s6-5.6 10.6-7c6.3-2 9.5-6 11.9-9q1.3-1.7 2.5-2.8a8 8 0 0 1 4.9-1.8h.8l-.5-.3-1.2-.3q-2-.2-5.3 1.6a15 15 0 0 0-3.4 3c-2.1 2.3-4.6 5-11.8 7.4-5.3 1.6-8 4-10.6 6.2-2.3 2-4.5 3.9-8 5.2l-19.5 21z"/><path fill="#85340a" fill-rule="nonzero" d="M251.3 219.2c-.5-10-6.2-14.3-5-23.4-2.5 7.2 3.4 12.7 3 23.3zm6.4 26-21.3-46.8 17.9 48.2zm0 0"/><path fill="#85340a" fill-rule="nonzero" d="M261.9 219.4c3.3-9.3-.2-15.6 4.3-23.5-5 5.7-1.7 13-6 22.7zm-4 26.5-1.8-51.4-2 51.4zm0 0"/><path fill="#85340a" fill-rule="nonzero" d="M271.6 223.7c6.7-7.4 5.8-14.5 13-20-6.8 3.3-6.6 11.3-14.3 18.6zm-13.8 23 18-48.2-21.4 46.7zm0 0"/><path fill="#85340a" fill-rule="nonzero" d="M279 231.4c9-4.3 10.9-11.2 19.6-13.6-7.5.5-10.4 8-20.3 11.7zm-21.6 15.9 35-37.7-37.6 35zm0 0"/><path fill="#f6b40e" fill-rule="nonzero" d="m257.5 249.5 68-31.3s1.3-.5 1-1.4-1.7-.3-1.7-.3l-70.2 26zm23.6-6.2c10.3.4 16-6 25.2-5.2 9.3.9 14.5-4.2 18-5.4 3.7-1.2 5.8 1.3 6.3.2.6-1-2.3-3.3-7.4-2.6-5.1.8-6.6 4.6-17.9 3.7s-14 4.6-24.2 3.3zm0 0"/><path fill="#85340a" fill-rule="nonzero" d="m257.2 249 24-11-.2-.1.2-1.2 2.2.2 41.8-19.2.7-.6c-.2-.4-.7-.2-.7-.2v.1l-70.4 26.1-.4-1.1 70.2-26c.5-.2 2-.5 2.4.6.8 1.9-1 2-1 2-.6.7-35.4 16.3-39.4 18.2q3.2-.6 6-1.6c3.5-1 7-2.2 12.7-1.8 7.3.6 10.5-.9 13.2-2.1q2-1.1 4.6-1.6 4-.5 6.2.7l1.4.9.6 1.2-.1.7c-.4 1-1.2.7-2.2.3s-2.5-.8-4.4-.2q-1.5.5-3.2 1.5c-3.5 2-8.2 4.6-15.1 4-4.5-.5-8.2.9-12 2.3-4 1.5-8 3-13.3 2.8v-1.2c5.1.2 9-1.3 12.9-2.7s7.7-3 12.5-2.5c6.6.6 11-1.9 14.4-3.7l3.4-1.7c2.3-.7 4-.1 5.2.3l.7.3q0-.3-.3-.5-.4-.4-1-.7-1.8-1-5.5-.6-2.4.4-4.3 1.5c-2.9 1.3-6.1 2.8-13.7 2.2-5.5-.4-9 .7-12.2 1.8-2.9 1-5.6 1.8-9.5 1.7l-25.9 12z"/><path fill="#f6b40e" fill-rule="nonzero" d="m256 249.8 74.8-2.9s1.4 0 1.4-.9-1.4-1-1.4-1l-74.8-2.8zm24.2 3.3c9.4 4.3 17.1.6 25.3 4.9s15 1.6 18.8 1.9c3.7.3 4.8 3.4 5.7 2.6.8-.8-.9-4-5.9-5.3s-7.9 1.8-18-3.4-14.6-1-23.6-6.2zm0 0"/><path fill="#85340a" fill-rule="nonzero" d="m256 249.1 26.3-1 .5-1 2 1 46-1.8s.8 0 .8-.3-.8-.3-.8-.3l-74.8-2.8v-1.3l74.8 2.9s2 0 2 1.5-2 1.5-2 1.5l-43 1.7q3.3.7 6.2.9c3.6.2 7.3.5 12.4 3.2 6.5 3.3 10 3.1 13 3q2.3-.2 4.8.3 4 1.2 5.5 3l.9 1.4q.3.8.2 1.3l-.4.6c-.8.7-1.3.2-2.2-.5-.8-.7-2-1.8-4-2l-3.5.3c-4 .4-9.3 1-15.5-2.2-4-2-7.9-2.2-12-2.4s-8.5-.3-13.3-2.5l.5-1c4.6 2 8.8 2.2 12.9 2.3 4.2.2 8.3.3 12.5 2.5 5.8 3.1 11 2.5 14.7 2.1l3.8-.2c2.4.2 3.8 1.4 4.7 2.2q.5.6.6.5l-.1-.5-.7-1q-1.3-1.7-4.8-2.7-2.4-.4-4.6-.3c-3.1.2-6.7.3-13.5-3.2a28 28 0 0 0-12-3c-3-.2-5.8-.5-9.3-2l-28.6 1z"/><path fill="#f6b40e" fill-rule="nonzero" d="m254.6 249.5 70.2 26s1.3.5 1.6-.3-.9-1.4-.9-1.4l-68-31.3zm21 12.3c7 7.6 15.6 7 21.6 14.2s13.2 7.2 16.6 9c3.3 1.7 3.1 5 4.2 4.5s.8-4-3.4-7-8-1.5-15.3-10.1-13-6.6-19.4-14.8zm0 0"/><path fill="#85340a" fill-rule="nonzero" d="m254.8 248.9 24.7 9.2v-.2l.9-.7 1.4 1.7c4.2 1.5 43 15.8 43.4 16.2 0 0 .5.2.7-.2l-.7-.6-68-31.2.5-1.1c7 3.2 67 30.2 68.2 31.3 0 0 1.9.2 1.1 2.1-.5 1.1-1.9.8-2.4.6l-40.4-15q2.6 2.1 5.4 3.3c3.1 1.6 6.5 3.3 10.2 7.7 4.7 5.6 8 6.7 10.8 7.8q2.3.6 4.4 2.1 3.2 2.7 3.9 4.9l.3 1.6q0 .8-.4 1.3l-.6.4c-1 .3-1.3-.3-1.8-1.3s-1.1-2.4-3-3.3q-1.3-.6-3.3-1.2c-3.8-1-9-2.6-13.4-7.9a26 26 0 0 0-10.2-6.8c-3.8-1.7-7.7-3.5-11.3-7.4l.9-.8c3.4 3.7 7.3 5.4 11 7.1 3.8 1.8 7.5 3.5 10.5 7.1 4.3 5 9.2 6.5 12.9 7.6q2.1.5 3.5 1.2c2.2 1 3 2.7 3.5 3.8l.3.8.2-.6-.3-1.2a10 10 0 0 0-3.4-4.3 15 15 0 0 0-4.1-2c-3-1-6.4-2.3-11.3-8.1-3.6-4.2-6.8-5.8-9.9-7.4a26 26 0 0 1-7.9-5.4l-26.7-10z"/><path fill="#f6b40e" fill-rule="nonzero" d="m253.4 248.7 54.9 50.9s1 1 1.6.3-.3-1.7-.3-1.7l-51-54.9zM268 268c3.6 9.7 11.7 12.5 14.4 21.4s9.5 11.7 12 14.6c2.4 2.9 1 5.8 2.2 5.8 1.1.1 2.2-3.4-.5-7.8-2.6-4.5-6.8-4.4-10.3-15.2-3.4-10.7-9.6-11-12.3-21zm0 0"/><path fill="#85340a" fill-rule="nonzero" d="m253.8 248.2 19.3 18v-.2l1.1-.3.7 2.1 33.8 31.3s.5.6.8.4c.2-.3-.4-.8-.4-.8l-50.9-55 1-.8 50.8 55s1.4 1.3.3 2.4-2.5-.3-2.5-.3l-31.5-29.3q1.6 2.9 3.7 5c2.3 2.8 4.7 5.6 6.5 11 2.3 7 4.8 9.4 7 11.4a16 16 0 0 1 3.2 3.7q2 3.5 1.8 6l-.4 1.5q-.2.8-.8 1-.3.3-.7.3c-1-.1-1-.8-1.1-2 0-1-.2-2.6-1.5-4.1q-1-1-2.7-2.4c-3-2.4-7.3-5.8-9.3-12.4-1.4-4.3-4-7.2-6.8-10.2-2.9-3-5.8-6.2-7.7-11.2l1.2-.4c1.7 4.7 4.6 7.8 7.4 10.8s5.6 6 7 10.6c2 6.3 6 9.5 9 11.9q1.7 1.3 2.8 2.5a8 8 0 0 1 1.8 4.8v.8l.3-.4.3-1.2q.2-2-1.6-5.3-1.3-2-3-3.4c-2.3-2.2-5-4.6-7.3-11.9-1.7-5.2-4-8-6.3-10.5-2-2.3-3.8-4.5-5.2-8l-21-19.5z"/><path fill="#85340a" fill-rule="nonzero" d="M282.8 241.3c10-.5 14.3-6.2 23.4-5-7.2-2.5-12.7 3.4-23.3 3zm-26 6.4 46.8-21.4-48.2 18zm0 0"/><path fill="#85340a" fill-rule="nonzero" d="M282.6 251.9c9.3 3.3 15.6-.2 23.5 4.3-5.7-5-13-1.7-22.7-6zm-26.5-4 51.4-1.9-51.4-1.8zm0 0"/><path fill="#85340a" fill-rule="nonzero" d="M278.3 261.6c7.4 6.7 14.5 5.8 20.1 13-3.3-6.8-11.4-6.6-18.7-14.3zm-23-13.8 48.2 18-46.7-21.5zm0 0"/><path fill="#85340a" fill-rule="nonzero" d="M270.6 269c4.3 9 11.2 10.8 13.6 19.6-.5-7.5-8-10.4-11.7-20.3zm-15.9-21.6 37.7 35-35-37.6zm0 0"/><circle cx="256" cy="246" r="30.5" fill="#f6b40e" fill-rule="nonzero"/><path fill="#85340a" fill-rule="nonzero" d="M285.7 246a30 30 0 0 0-8.7-21 30 30 0 0 0-21-8.7 30 30 0 0 0-21 8.7 30 30 0 0 0-8.7 21 30 30 0 0 0 8.7 21 30 30 0 0 0 21 8.7 30 30 0 0 0 21-8.7 30 30 0 0 0 8.7-21m-7.5-22.1a31.2 31.2 0 0 1-22.2 53.4A31.2 31.2 0 0 1 234 224a31 31 0 0 1 44.3 0"/><path fill="#843511" fill-rule="nonzero" d="M266.4 239.5c-2 0-4 .9-5.2 2.8 2.3 2 7.5 2.3 11-.3a8 8 0 0 0-5.8-2.5m-26.5 3.7c4 3 8 2.8 10.3 1.4s2.3-1.9 1.9-1.9c-.5 0-1 .5-2.9 1.4-1.8 1-4.6 1-9.3-1m7.8-1.4q0-1-.7-1.7 2 .6 2.5 1.7a6 6 0 0 1-2.5 1.6q.6-.7.7-1.6m-3.3-1.8a2.1 2.1 0 0 0 .3 3.7 7 7 0 0 1-3.6-1.4q1.3-2 3.3-2.3m1-.5q-3.3 0-5.3 2.8c2.3 2 7.5 2.3 11-.3a8 8 0 0 0-5.7-2.5m.1-1.5c3 0 3.7.7 5.2 1.9 1.4 1.2 2 1 2.3 1.2s0 1-.5.7q-.7-.3-2.8-1.9c-1.4-1.2-2.8-1.2-4.2-1.2-4.2 0-6.6 3.5-7 3.3s2.3-4 7-4m-8.4 1.4c5.3-4.7 12.2-5.4 15.9-1.8q1.4 1.8 1.8 3.9.6 4-2.5 8.5.4 0 1 .5 2.8-5.5 1.8-10.7-.2-1.4-.7-2.7c-5.1-4.2-12.2-4.7-17.3 2.3m23.1 28.2a4.2 4.2 0 0 0-8.4 0 4 4 0 0 1 4.2-3.4 4 4 0 0 1 4.2 3.4m-11-7.6h-.1c4-1 5 .5 6.9.5s2.8-1.4 6.8-.6c-4 0-2.8 2.7-6.8 2.7s-2.8-2.7-6.8-2.6m-.2 0h-.7c4.9.5 2.5 3.3 7.7 3.3s2.8-2.8 7.8-3.3h-1c-4.5-1.4-5.4-.5-6.8-.5-1 0-1.6-.3-3.1-.3q-1.4 0-3.9.8m4.6-3.5c-2.3 0-3.2 2-5.3 3.5 1.1-.5 2-1.4 3.7-2.3 1.6-1 3 .2 4 .2s2.3-1.2 4-.2c1.6.9 2.6 1.8 3.8 2.3-2.2-1.4-3.1-3.5-5.5-3.5q-.8 0-2.3.7-1.6-.7-2.4-.7m-2.3-6.3a2.1 2.1 0 1 0 2.2 3.3c.8.6 2 .7 2.5.7h.3q1.1.2 2.5-.7a2 2 0 0 0 1.7.9 2.1 2.1 0 0 0 .5-4.2q.8.4.9 1.4-.1 1.2-1.4 1.4a1.4 1.4 0 0 1-1.4-1.4c-.3.5-1.2 1.8-3 2a4 4 0 0 1-2.9-2 1.4 1.4 0 0 1-1.4 1.4q-1.3-.2-1.4-1.5 0-.8 1-1.3m21.1-7c-4 3-8 2.8-10.3 1.4s-2.3-1.9-1.9-1.9c.5 0 1 .5 2.9 1.4 1.8 1 4.6 1 9.3-1m-4-1.4q0-1.1-.9-1.8 2.6.5 3 1.8a6 6 0 0 1-3 1.8q.9-.6 1-1.8M265 240a2 2 0 0 0 .3 3.5 7 7 0 0 1-3.2-1.3 5 5 0 0 1 2.9-2.2m10.2-.7c-5.4-4.7-12.2-5.4-15.9-1.8a9 9 0 0 0-1.8 3.9q-.6 4 2.5 8.5-.4 0-1 .5a17 17 0 0 1-1.8-10.7q.2-1.4.7-2.7c5.1-4.2 12.2-4.7 17.3 2.3m-8.4-1.4c-3 0-3.8.7-5.2 1.9s-2 1-2.3 1.2 0 1 .5.7q.6-.3 2.8-1.9c1.4-1.2 2.8-1.2 4.2-1.2 4.2 0 6.6 3.5 7 3.3s-2.3-4-7-4"/></svg>