<svg xmlns="http://www.w3.org/2000/svg" fill-rule="evenodd" clip-rule="evenodd" image-rendering="optimizeQuality"
    shape-rendering="geometricPrecision" text-rendering="geometricPrecision" viewBox="0 0 512 512">
    <g fill-rule="nonzero">
        <path fill="#4d4d4d"
            d="M256 0c70.7 0 134.7 28.7 181 75a255 255 0 0 1 75 181c0 70.7-28.7 134.7-75 181a255 255 0 0 1-181 75 255 255 0 0 1-181-75A255 255 0 0 1 0 256c0-70.7 28.7-134.7 75-181A255 255 0 0 1 256 0" />
        <path fill="#fff"
            d="M256 19.6c65.3 0 124.4 26.5 167.2 69.2s69.2 102 69.2 167.2-26.5 124.4-69.2 167.2A236 236 0 0 1 256 492.4a236 236 0 0 1-167.2-69.2c-42.7-42.8-69.2-102-69.2-167.2S46.1 131.6 88.8 88.8A236 236 0 0 1 256 19.6" />
        <path fill="#d52b1e" d="M471.7 273.8a216.4 216.4 0 0 1-431.4 0z" />
        <path fill="#0039a6" d="M252.8 273.8H40.3a219 219 0 0 1-.7-17.8A216.4 216.4 0 0 1 252.8 39.6z" />
        <path fill="#fff" d="m147.7 109.3-13.3 41.1H91l35 25.4-13.4 41.1 35-25.4 35 25.4-13.4-41 35-25.5h-43.2z" />
    </g>
</svg>