                    <?xml version="1.0" encoding="UTF-8" standalone="no"?>
                        <svg
                        viewBox="0 0 160 60"
                        preserveAspectRatio="xMidYMid"
                        class="h-12 w-auto text-base-content group-hover:scale-105 transition-transform duration-300"
                        version="1.1"
                        id="svg9"
                        xmlns="http://www.w3.org/2000/svg"
                        xmlns:svg="http://www.w3.org/2000/svg">
                        <defs
                            id="defs1">
                            <style
                            id="style1">
                                    /* Hereda de text-base-content; si no, usa fallback */
                                    :root { color: currentColor; }
                                </style>
                        </defs>
                        <path
                            d="M 5.797177,38.361599 0,38.237373 2.366195,37.966 c 1.685913,-0.192992 12.041712,-0.26102 36.025311,-0.236619 18.512523,0.01922 33.659123,-0.04437 33.659123,-0.142711 0,-0.09761 1.17127,-0.177465 2.60282,-0.177465 1.57721,0 2.60281,0.09317 2.60281,0.23662 0,0.13014 0.58564,0.236619 1.30141,0.236619 0.71577,0 1.30141,-0.106479 1.30141,-0.236619 0,-0.140493 0.90654,-0.23662 2.24788,-0.23662 1.3406,0 2.24789,0.09613 2.24789,0.23662 0,0.135316 0.70985,0.236619 1.65633,0.236619 0.94648,0 1.65634,-0.101303 1.65634,-0.236619 0,-0.139014 0.75274,-0.227007 1.8338,-0.212958 1.17422,0.01479 1.62084,0.08503 1.24225,0.194472 -0.44292,0.127922 -0.15898,0.214436 1.12764,0.346056 1.93584,0.197429 3.42655,-0.06655 1.94842,-0.345317 -0.74683,-0.140493 -0.70617,-0.159718 0.41408,-0.187816 0.69063,-0.01701 1.24225,0.07394 1.24225,0.205563 0,0.13014 0.36602,0.236619 0.81338,0.236619 0.44736,0 0.87993,-0.106479 0.96127,-0.236619 0.0917,-0.147887 2.10443,-0.220352 5.396401,-0.193733 3.13965,0.02588 4.53718,0.09687 3.47683,0.177465 -1.69849,0.129401 -1.73028,0.141972 -0.72465,0.295774 1.35539,0.207042 3.48274,-0.02514 3.04796,-0.333485 -0.20409,-0.14493 0.0148,-0.174507 0.63443,-0.08651 0.52056,0.07468 1.1062,0.138274 1.30141,0.141972 0.315,0.0052 0.315,0.0318 0,0.238837 -0.24549,0.160458 -0.0991,0.177465 0.47324,0.05546 1.43524,-0.306866 34.71873,-0.217394 35.03077,0.09465 0.20409,0.204084 -1.21415,0.296514 -5.72619,0.374894 -2.90155,0.05028 -18.92216,0.07764 -38.96383,0.08651 -38.116441,0.01627 -95.399803,-0.03697 -95.399803,-0.136056 m 54.602162,-0.882891 c 0.2943,-0.0562 0.72021,-0.05472 0.94648,0.0044 0.22627,0.05915 -0.0148,0.105739 -0.53461,0.103521 -0.52056,-0.0037 -0.70616,-0.05176 -0.41187,-0.107958 z"
                            style="fill:#dc2626;stroke-width:0.739436"
                            id="path1" />
                        <path
                            d="m 26.613096,32.90644 q 0,0.18952 -0.07004,0.33784 -0.07416,0.1442 -0.31312,0.23896 -0.24308,0.09888 -0.67568,0.1442 -0.4326,0.04532 -1.16184,0.04944 -0.62624,0 -1.03824,-0.04944 -0.38316,-0.04532 -0.62624,-0.1442 -0.24308,-0.1236 -0.38728,-0.31312 -0.11948,-0.19364 -0.21424,-0.48204 l -2.87576,-7.36244 q -0.50676,-1.2566 -1.05884,-2.29484 -0.5356,-1.06296 -1.28132,-1.8128 -0.74984,-0.77044 -1.76336,-1.17832 -1.01352,-0.43672 -2.43904,-0.43672 h -2.77276 v 13.30348 q 0,0.18952 -0.1236,0.33784 -0.09476,0.1442 -0.33784,0.23896 -0.21424,0.07416 -0.62624,0.1236 -0.38728,0.07004 -0.9888,0.07004 -0.60564,0 -1.01352,-0.07004 -0.38728,-0.04944 -0.63036,-0.1236 -0.23896,-0.09476 -0.33784,-0.23896 -0.09476,-0.14832 -0.09476,-0.33784 V 3.98404 q 0,-0.93936 0.48204,-1.30192 0.50676,-0.38728 1.06296,-0.38728 h 6.63732 q 1.18244,0 1.957,0.07416 0.79516,0.04532 1.4214,0.11948 1.8128,0.31312 3.18888,0.9888 1.4008,0.67568 2.34016,1.71392 0.94348,1.03824 1.4008,2.3896 0.48204,1.32664 0.48204,2.9458 0,1.5656 -0.4326,2.82632 -0.412,1.22776 -1.20716,2.19596 -0.79928,0.93936 -1.90756,1.63976 -1.1124,0.7004 -2.48848,1.18244 0.77456,0.33784 1.4008,0.86932 0.63036,0.50676 1.16184,1.23188 0.55208,0.72512 1.03412,1.66448 0.48616,0.94348 0.9682,2.12592 l 2.8016,6.8804 q 0.33784,0.8652 0.4326,1.23188 0.09476,0.33784 0.09476,0.53148 M 20.363056,10.9592 q 0,-1.8334 -0.824,-3.09 -0.81988,-1.2772 -2.74804,-1.8334 -0.60564,-0.1648 -1.37608,-0.23896 -0.74984,-0.07416 -1.9776,-0.07416 h -3.502 v 10.5266 h 4.05408 q 1.63976,0 2.82632,-0.38728 1.20716,-0.412 2.00232,-1.1124 0.79516,-0.721 1.15772,-1.6892 0.38728,-0.96408 0.38728,-2.1012 m 29.474483,10.16404 q 0,0.94348 -0.48204,1.35136 -0.45732,0.38728 -1.06296,0.38728 H 34.049696 q 0,1.8128 0.36256,3.25892 0.36256,1.44612 1.20716,2.48848 0.8446,1.04236 2.19596,1.59032 1.35136,0.54796 3.30836,0.5562 1.545,0 2.752163,-0.23896 1.20716,-0.2678 2.07648,-0.58092 0.89404,-0.31312 1.44612,-0.5562 0.58092,-0.26368 0.86932,-0.26368 0.16892,0 0.2884,0.09476 0.14832,0.07416 0.21836,0.24308 0.07,0.16892 0.0989,0.48204 0.0453,0.2884 0.0453,0.72512 0,0.31312 -0.0206,0.55208 -0.0247,0.21836 -0.0742,0.412 -0.0247,0.16892 -0.1236,0.31312 -0.07,0.1442 -0.21424,0.2884 -0.1236,0.1236 -0.77456,0.43672 -0.65096,0.2884 -1.6892,0.5768 -1.03824,0.2884 -2.41432,0.51088 -1.351363,0.23896 -2.896363,0.23896 -2.678,0 -4.70504,-0.74572 -2.00644,-0.74984 -3.3784,-2.2248 -1.3802,-1.47084 -2.0806,-3.69152 -0.7004,-2.22068 -0.7004,-5.16648 0,-2.8016 0.72512,-5.02228 0.72512,-2.24128 2.07648,-3.7904 1.37608,-1.5656 3.30836,-2.3896 1.93228,-0.8446 4.32188,-0.8446 2.5544,0 4.342483,0.824 1.8128,0.81988 2.97052,2.22068 1.15772,1.37608 1.6892,3.2548 0.5562,1.86224 0.5562,3.98404 z m -4.00876,-1.18244 q 0.0742,-3.13944 -1.4008,-4.9234 -1.442003,-1.78808 -4.317763,-1.78808 -1.47496,0 -2.58324,0.5562 -1.1124,0.5562 -1.85812,1.47084 -0.74984,0.91876 -1.16184,2.15064 -0.412,1.20716 -0.4532,2.5338 z m 28.67932,12.98624 q 0,0.19364 -0.0948,0.34196 -0.0742,0.1442 -0.2884,0.23896 -0.19364,0.07416 -0.5356,0.1236 -0.33372,0.04532 -0.81576,0.04532 -0.50676,0 -0.84872,-0.04944 -0.33784,-0.04532 -0.55208,-0.11948 -0.21836,-0.09476 -0.31312,-0.23896 -0.0989,-0.14832 -0.0989,-0.34196 V 30.0554 q -1.71392,1.85812 -3.57204,2.89636 -1.8334,1.03824 -4.03348,1.03824 -2.3896,0 -4.0788,-0.91464 -1.6892,-0.94348 -2.75216,-2.5132 -1.03824,-1.59032 -1.52028,-3.71624 -0.48204,-2.15064 -0.48204,-4.51552 0,-2.8016 0.60152,-5.04288 0.60564,-2.27012 1.78808,-3.86456 1.18244,-1.59444 2.92108,-2.43904 1.76336,-0.8652 4.05408,-0.8652 1.90756,0 3.47728,0.84048 1.59444,0.824 3.13944,2.43904 V 0.77456 q 0,-0.16892 0.07,-0.31312 0.0989,-0.16892 0.33784,-0.24308 0.24308,-0.09476 0.60564,-0.1442 Q 71.904259,0 72.481059,0 q 0.60564,0 0.9888,0.07416 0.38728,0.04944 0.60564,0.1442 0.21836,0.07416 0.31312,0.24308 0.1236,0.1442 0.1236,0.31312 z m -4.00464,-15.28108 q -1.61916,-2.00232 -3.13944,-3.04056 -1.49556,-1.06296 -3.13944,-1.06296 -1.52028,0 -2.58324,0.72512 -1.05884,0.72512 -1.73452,1.90756 -0.65508,1.18244 -0.9682,2.678 -0.2884,1.49968 -0.2884,3.04468 0,1.63976 0.23896,3.20948 0.2678,1.5656 0.89404,2.8016 0.63036,1.20716 1.6686,1.95288 1.03412,0.72512 2.60384,0.72512 0.79928,0 1.5244,-0.21836 0.74572,-0.21424 1.52028,-0.721 0.77044,-0.50676 1.61504,-1.30604 0.8446,-0.81988 1.78808,-2.00232 z"
                            aria-label="Red"
                            style="font-family:Calibri;-inkscape-font-specification:Calibri;white-space:pre;fill:#dc2626;stroke-width:624.592"
                            id="path2" />
                        <path
                            d="m 96.635099,31.568 q 0,0.48204 -0.0453,0.81988 -0.0494,0.31312 -0.16892,0.55208 -0.0989,0.21836 -0.2678,0.34196 -0.1442,0.09476 -0.36256,0.09476 h -13.80612 q -0.5562,0 -1.06296,-0.36256 -0.48204,-0.38728 -0.48204,-1.32664 V 2.76508 q 0,-0.19364 0.0948,-0.33784 0.0989,-0.1442 0.33784,-0.21424 0.24308,-0.09888 0.65096,-0.14832 0.412,-0.07004 0.9888,-0.07004 0.60564,0 0.9888,0.07004 0.412,0.04944 0.6592,0.14832 0.23896,0.07004 0.33372,0.21424 0.0989,0.1442 0.0989,0.33784 v 27.01484 h 11.19816 q 0.21836,0 0.36256,0.1236 0.16892,0.09476 0.2678,0.309 0.11948,0.19364 0.1648,0.5356 0.0494,0.33372 0.0494,0.81988"
                            aria-label="L"
                            style="font-family:Calibri;-inkscape-font-specification:Calibri;white-space:pre;fill:currentColor;stroke-width:624.592"
                            id="path3" />
                        <path
                            d="m 102.6539,28.0029 q 0,0.14006 -0.0685,0.24734 -0.0715,0.08642 -0.22648,0.15496 -0.15794,0.07152 -0.43806,0.1043 -0.28012,0.03278 -0.7152,0.03576 -0.4172,0 -0.69732,-0.03576 -0.28012,-0.03278 -0.45594,-0.1043 -0.157941,-0.06854 -0.226481,-0.15496 -0.0536,-0.10728 -0.0536,-0.24734 V 12.28936 q 0,-0.12218 0.0536,-0.22648 0.0685,-0.1043 0.226481,-0.17582 0.17582,-0.06854 0.45594,-0.1043 0.27714,-0.03576 0.69732,-0.03576 0.43508,0 0.7152,0.03576 0.28012,0.03576 0.43806,0.1043 0.15794,0.06854 0.22648,0.17582 0.0685,0.10728 0.0685,0.22648 z m 0.33376,-21.02092 q 0,1.0132 -0.3874,1.37974 -0.38144,0.36654 -1.41252,0.36654 -1.0132,0 -1.397621,-0.34866 -0.36654,-0.36952 -0.36654,-1.36186 0,-1.0132 0.3874,-1.37974 0.381441,-0.36654 1.412521,-0.36654 1.0132,0 1.37974,0.36654 0.38442,0.34866 0.38442,1.341 m 20.7557,21.02092 q 0,0.14006 -0.0685,0.24734 -0.0715,0.08642 -0.22648,0.15496 -0.15794,0.07152 -0.43806,0.1043 -0.28012,0.03278 -0.69732,0.03576 -0.43806,0 -0.7152,-0.03576 -0.28012,-0.03278 -0.43806,-0.1043 -0.15794,-0.06854 -0.22648,-0.15496 -0.0715,-0.10728 -0.0715,-0.24734 v -9.19628 q 0,-1.34696 -0.2086,-2.16646 -0.2086,-0.8195 -0.6109,-1.4155 -0.4023,-0.59302 -1.04896,-0.90592 -0.6258,-0.31588 -1.46616,-0.31588 -1.08174,0 -2.16348,0.76884 -1.08472,0.76884 -2.27076,2.25288 v 10.97832 q 0,0.14006 -0.0685,0.24734 -0.0715,0.08642 -0.22946,0.15496 -0.15496,0.07152 -0.43508,0.1043 -0.28012,0.03278 -0.7152,0.03576 -0.42018,0 -0.7003,-0.03576 -0.27714,-0.03278 -0.45296,-0.1043 -0.15794,-0.06854 -0.22648,-0.15496 -0.0536,-0.10728 -0.0536,-0.24734 V 12.28936 q 0,-0.14006 0.0536,-0.22648 0.0507,-0.1043 0.2086,-0.17582 0.15794,-0.08642 0.4023,-0.1043 0.24436,-0.03576 0.64666,-0.03576 0.38442,0 0.6258,0.03576 0.26224,0.01788 0.4023,0.1043 0.14006,0.07152 0.1937,0.17582 0.0685,0.0894 0.0685,0.22648 v 2.07706 q 1.32908,-1.48404 2.6373,-2.16348 1.3261,-0.7003 2.67008,-0.7003 1.57344,0 2.6373,0.54236 1.08472,0.52448 1.74628,1.4155 0.66454,0.88804 0.94466,2.09494 0.298,1.18604 0.298,2.8608 z m 20.89874,-8.5377 q 0,0.68242 -0.35164,0.97744 -0.3278,0.28012 -0.76586,0.28012 h -10.30186 q 0,1.3112 0.25926,2.35718 0.26224,1.04896 0.87314,1.79992 0.61388,0.75096 1.59132,1.15028 0.97744,0.4023 2.38996,0.4023 1.1175,0 1.99064,-0.17284 0.87314,-0.1937 1.50192,-0.42018 0.64666,-0.22648 1.04896,-0.4023 0.4172,-0.19072 0.6258,-0.19072 0.12516,0 0.21158,0.06854 0.1043,0.05364 0.15794,0.17582 0.0536,0.12218 0.0685,0.34866 0.0358,0.2086 0.0358,0.52448 0,0.22648 -0.0179,0.39932 -0.0179,0.15794 -0.0507,0.298 -0.0179,0.12218 -0.0894,0.22648 -0.0507,0.1043 -0.15794,0.2086 -0.0864,0.0894 -0.55726,0.31588 -0.47084,0.2086 -1.2218,0.4172 -0.75096,0.2086 -1.74628,0.36952 -0.97744,0.17284 -2.09494,0.17284 -1.937,0 -3.40614,-0.53938 -1.44828,-0.54236 -2.4436,-1.6092 -0.99532,-1.06386 -1.50192,-2.67008 -0.5066,-1.60622 -0.5066,-3.73692 0,-2.0264 0.52448,-3.63262 0.52448,-1.62112 1.50192,-2.7416 0.99532,-1.1324 2.39294,-1.7284 1.39464,-0.6109 3.12304,-0.6109 1.85058,0 3.1439,0.596 1.3112,0.59302 2.1456,1.60622 0.84036,0.99532 1.2218,2.3542 0.40528,1.34696 0.40528,2.88166 z m -2.89954,-0.85526 q 0.0536,-2.27076 -1.0132,-3.5611 -1.04598,-1.29332 -3.12602,-1.29332 -1.06386,0 -1.86846,0.4023 -0.8046,0.4023 -1.341,1.06386 -0.5364,0.66156 -0.84036,1.55556 -0.298,0.87314 -0.33078,1.8327 z"
                            aria-label="ine"
                            style="font-family:Calibri;-inkscape-font-specification:Calibri;letter-spacing:0.748789px;white-space:pre;fill:currentColor;stroke-width:451.768"
                            id="path4" />
                        <text
                            xml:space="preserve"
                            style="font-style:normal;font-variant:normal;font-weight:700;font-stretch:expanded;font-family:'Swis721 Ex BT';-inkscape-font-specification:'Swis721 Ex BT Bold Expanded';text-align:start;letter-spacing:2.49529px;writing-mode:lr-tb;direction:ltr;white-space:pre;shape-inside:url(#a);display:inline;fill:currentColor;fill-opacity:1;stroke:none;stroke-width:0.7;stroke-dasharray:none;stroke-opacity:1"
                            transform="matrix(0.73829303,0,0,0.73829303,14.703758,38.500554)"
                            id="text9"><tspan
                            x="0"
                            y="0"
                            id="tspan1">
                        </tspan><tspan
                            x="-20"
                            y="15"
                            id="tspan3"><tspan
                        style="font-weight:300;font-stretch:normal;font-family:Calibri;-inkscape-font-specification:'Calibri Light'"
                        id="tspan2">Ingeniería &amp; Supervisión</tspan> </tspan></text>
                        </svg>