<svg xmlns="http://www.w3.org/2000/svg" width="250" height="60">
    <defs>
        <style>
            :root { color: #000; }
            @media (prefers-color-scheme: dark) {
                :root { color: #fff; }
            }
        </style>
    </defs>
    <path
        d="m54.118 49.023-7.84-.168 3.2-.367c2.28-.261 16.285-.353 48.72-.32 25.036.026 45.52-.06 45.52-.193 0-.132 1.584-.24 3.52-.24 2.133 0 3.52.126 3.52.32 0 .176.792.32 1.76.32s1.76-.144 1.76-.32c0-.19 1.226-.32 3.04-.32 1.813 0 3.04.13 3.04.32 0 .183.96.32 2.24.32s2.24-.137 2.24-.32c0-.188 1.018-.307 2.48-.288 1.588.02 2.192.115 1.68.263-.599.173-.215.29 1.525.468 2.618.267 4.634-.09 2.635-.467-1.01-.19-.955-.216.56-.254.934-.023 1.68.1 1.68.278 0 .176.495.32 1.1.32s1.19-.144 1.3-.32c.124-.2 2.846-.298 7.298-.262 4.246.035 6.136.131 4.702.24-2.297.175-2.34.192-.98.4 1.833.28 4.71-.034 4.122-.451-.276-.196.02-.236.858-.117.704.101 1.496.187 1.76.192.426.007.426.043 0 .323-.332.217-.134.24.64.075 1.941-.415 46.953-.294 47.375.128.276.276-1.642.401-7.744.507-3.924.068-25.59.105-52.694.117-51.548.022-129.017-.05-129.017-.184m73.843-1.194c.398-.076.974-.074 1.28.006s-.02.143-.723.14c-.704-.005-.955-.07-.557-.146z"
        style="fill:#dc2626" transform="translate(-21.454 -6.174)" />
    <path
        d="M19.023 10.796q0 .046-.017.082-.018.035-.076.058-.059.024-.164.035t-.282.012q-.152 0-.252-.012-.093-.011-.152-.035-.059-.03-.094-.076-.029-.047-.052-.117l-.698-1.787q-.123-.305-.257-.557-.13-.258-.311-.44-.182-.187-.428-.286-.246-.106-.592-.106h-.673v3.229q0 .046-.03.082-.023.035-.082.058-.052.018-.152.03-.094.017-.24.017-.147 0-.246-.017-.094-.012-.153-.03-.058-.023-.082-.058-.023-.036-.023-.082v-7.02q0-.228.117-.316.123-.094.258-.094h1.611q.287 0 .475.018.193.011.345.029.44.076.774.24.34.164.568.416.229.252.34.58.117.322.117.715 0 .38-.105.686-.1.298-.293.533-.194.228-.463.398-.27.17-.604.287.188.082.34.211.153.123.282.299.134.176.251.404.118.229.235.516l.68 1.67q.082.21.105.299.023.082.023.129m-1.517-5.327q0-.445-.2-.75-.199-.31-.667-.445-.147-.04-.334-.058-.182-.018-.48-.018h-.85v2.555h.984q.398 0 .686-.094.293-.1.486-.27.193-.175.281-.41.094-.234.094-.51m7.154 2.467q0 .229-.117.328-.111.094-.258.094h-3.457q0 .44.088.791t.293.604.533.386.803.135q.375 0 .668-.058.293-.065.504-.141.217-.076.351-.135.141-.064.211-.064.041 0 .07.023.036.018.053.059t.024.117q.011.07.011.176 0 .076-.005.134-.006.053-.018.1-.006.041-.03.076-.017.035-.052.07-.03.03-.188.106-.158.07-.41.14t-.586.124q-.328.058-.703.058-.65 0-1.142-.181-.487-.182-.82-.54-.335-.357-.505-.896t-.17-1.254q0-.68.176-1.219.176-.544.504-.92.334-.38.803-.58.469-.205 1.049-.205.62 0 1.054.2.44.199.721.539.281.334.41.79.135.452.135.967zm-.973-.287q.018-.762-.34-1.195-.35-.434-1.048-.434-.358 0-.627.135-.27.135-.451.357-.182.223-.282.522-.1.293-.11.615zm6.961 3.152q0 .047-.023.083-.018.035-.07.058-.047.018-.13.03-.081.011-.198.011-.123 0-.206-.012-.082-.011-.134-.029-.053-.023-.076-.058-.024-.036-.024-.083v-.697q-.416.451-.867.703-.445.252-.979.252-.58 0-.99-.222-.41-.229-.668-.61-.252-.386-.369-.902-.117-.522-.117-1.096 0-.68.146-1.224.147-.551.434-.938t.709-.592q.428-.21.984-.21.463 0 .844.204.387.2.762.592V2.997q0-.041.017-.076.024-.041.082-.059.059-.023.147-.035.094-.018.234-.018.147 0 .24.018.094.012.147.035.053.018.076.059.03.035.03.076zm-.972-3.709q-.393-.486-.762-.738-.363-.258-.762-.258-.369 0-.627.176-.257.176-.421.463-.159.287-.235.65-.07.364-.07.739 0 .398.058.779.065.38.217.68.153.293.405.474.251.176.632.176.194 0 .37-.053.181-.052.369-.175.187-.123.392-.317.205-.199.434-.486z"
        aria-label="Red"
        style="font-family:Calibri;-inkscape-font-specification:Calibri;white-space:pre;fill:#dc2626;stroke-width:151.6"
        transform="translate(24.477 -7.229)scale(4.12)" />
    <path
        d="M17.898 10.509q0 .117-.011.199-.012.076-.041.134-.024.053-.065.083-.035.023-.088.023h-3.351q-.135 0-.258-.088-.117-.094-.117-.322v-7.02q0-.047.023-.082.024-.035.082-.052.059-.024.158-.036.1-.017.24-.017.147 0 .24.017.1.012.16.036.058.017.081.052.024.035.024.082v6.557h2.718q.053 0 .088.03.041.023.065.075.029.047.04.13.012.081.012.199"
        aria-label="L"
        style="font-family:Calibri;-inkscape-font-specification:Calibri;white-space:pre;stroke-width:151.6;fill:currentColor"
        transform="translate(99.134 -7.385)scale(4.12)" />
    <path
        d="M14.822 10.801q0 .047-.023.083-.024.029-.076.052-.053.024-.147.035t-.24.012q-.14 0-.234-.012-.094-.011-.153-.035-.053-.023-.076-.052-.018-.036-.018-.083V5.528q0-.041.018-.076.023-.035.076-.059.059-.023.153-.035.093-.012.234-.012.146 0 .24.012t.147.035.076.059.023.076zm.112-7.054q0 .34-.13.463-.128.123-.474.123-.34 0-.469-.117-.123-.124-.123-.457 0-.34.13-.463.128-.123.474-.123.34 0 .463.123.129.117.129.45m6.965 7.054q0 .047-.023.083-.024.029-.076.052-.053.024-.147.035t-.234.012q-.147 0-.24-.012-.094-.011-.147-.035-.053-.023-.076-.052-.024-.036-.024-.083V7.714q0-.452-.07-.727t-.205-.475q-.135-.199-.352-.304-.21-.106-.492-.106-.363 0-.726.258-.364.258-.762.756V10.8q0 .047-.023.083-.024.029-.077.052-.052.024-.146.035t-.24.012q-.141 0-.235-.012-.093-.011-.152-.035-.053-.023-.076-.052-.018-.036-.018-.083V5.528q0-.047.018-.076.017-.035.07-.059.053-.029.135-.035.082-.012.217-.012.129 0 .21.012.088.006.135.035.047.024.065.059.023.03.023.076v.697q.446-.498.885-.726.445-.235.896-.235.528 0 .885.182.364.176.586.475.223.298.317.703.1.398.1.96zm7.013-2.865q0 .229-.118.328-.11.094-.257.094H25.08q0 .44.087.791.088.352.293.604.206.252.534.386.328.135.802.135.375 0 .668-.058.293-.065.504-.141.217-.076.352-.135.14-.064.21-.064.042 0 .071.023.035.018.053.059t.023.117q.012.07.012.176 0 .076-.006.134-.006.053-.017.1-.006.041-.03.076-.017.035-.053.07-.029.03-.187.106-.158.07-.41.14t-.586.124q-.328.058-.703.058-.65 0-1.143-.181-.486-.182-.82-.54-.334-.357-.504-.896t-.17-1.254q0-.68.176-1.219.176-.544.504-.92.334-.38.803-.58.468-.205 1.048-.205.621 0 1.055.2.44.199.72.539.282.334.41.79.136.452.136.967zm-.973-.287q.018-.762-.34-1.195-.351-.434-1.049-.434-.357 0-.627.135t-.45.357-.282.522q-.1.293-.111.615z"
        aria-label="ine"
        style="font-family:Calibri;-inkscape-font-specification:Calibri;letter-spacing:.748789px;white-space:pre;stroke-width:151.6;fill:currentColor"
        transform="translate(134.723 .16)scale(2.98)" />
    <g aria-label="TEKON"
        style="font-family:Calibri;-inkscape-font-specification:Calibri;letter-spacing:0;white-space:pre;stroke-width:151.6">
        <path d="M10.525 11.457v6.914H8.37v-6.914H5.404V9.705h8.086v1.752z"
            style="font-weight:700;font-stretch:expanded;font-family:&quot;Swis721 Ex BT&quot;;-inkscape-font-specification:&quot;Swis721 Ex BT Bold Expanded&quot;;fill:currentColor"
            transform="matrix(.87 0 0 .87 31.538 21.788)" />
        <path d="M14.404 18.371V9.705h7.694v1.752h-5.52v1.465h4.916v1.764h-4.916v1.863h5.52v1.822z"
            style="font-weight:700;font-stretch:expanded;font-family:&quot;Swis721 Ex BT&quot;;-inkscape-font-specification:&quot;Swis721 Ex BT Bold Expanded&quot;;fill:#dc2626"
            transform="matrix(.87 0 0 .87 31.538 21.788)" />
        <path
            d="M23.51 18.371V9.705h2.174v3.328l3.644-3.328h2.795l-3.814 3.363 4.283 5.303h-2.66l-3.147-3.973-1.101.973v3zm13.974-1.558q1.301 0 2.045-.739.75-.744.75-2.033 0-1.3-.75-2.039-.744-.744-2.045-.744t-2.056.744q-.75.744-.75 2.039 0 1.29.75 2.033.75.738 2.056.738m-5.197-2.772q0-2.08 1.412-3.322t3.785-1.242 3.78 1.242 1.406 3.322-1.406 3.322q-1.407 1.237-3.78 1.237T33.7 17.363q-1.412-1.242-1.412-3.322m11.871 4.33V9.705h2.666l4.33 6.111v-6.11h2.086v8.665h-2.636l-4.372-6.17v6.17z"
            style="font-weight:700;font-stretch:expanded;font-family:&quot;Swis721 Ex BT&quot;;-inkscape-font-specification:&quot;Swis721 Ex BT Bold Expanded&quot;;fill:currentColor"
            transform="matrix(.87 0 0 .87 31.538 21.788)" />
    </g>
    <g transform="translate(2.747 16.61)scale(1.09)">
        <ellipse cx="22.651" cy="14.99" rx=".538" ry=".543"
            style="fill:none;fill-opacity:1;stroke:currentColor;stroke-width:5.78695;stroke-dasharray:none;stroke-opacity:1" />
        <path d="M22.651 18.397v3.472M22.651 8.196v3.472M26.005 15.085h3.473M15.779 15.085h3.472"
            style="fill:#dc2626;fill-opacity:1;stroke:currentColor;stroke-width:.9;stroke-dasharray:none;stroke-opacity:1" />
    </g><text xml:space="preserve"
        style="font-style:normal;font-variant:normal;font-weight:700;font-stretch:expanded;font-family:&quot;Swis721 Ex BT&quot;;-inkscape-font-specification:&quot;Swis721 Ex BT Bold Expanded&quot;;text-align:start;letter-spacing:2.49529px;writing-mode:lr-tb;direction:ltr;white-space:pre;shape-inside:url(#a);display:inline;fill:currentColor;fill-opacity:1;stroke:none;stroke-width:.7;stroke-dasharray:none;stroke-opacity:1"
        transform="matrix(.76 0 0 .76 -20 -1.575)">
        <tspan x="-110" y="71.592">
            <tspan
                style="font-weight:300;font-stretch:normal;font-family:Calibri;-inkscape-font-specification:&quot;Calibri Light&quot;;fill:currentColor;stroke:none">
                Ingeniería &amp; Supervisión</tspan>
        </tspan>
    </text>
</svg>