<svg xmlns="http://www.w3.org/2000/svg" xml:space="preserve" viewBox="0 0 122.9 119.9" >
    <path style="fill:currentColor;"
        d="M60 0a60 60 0 0 1 32 9.3 1 1 0 0 1 .1.9L88 15.7q-.4.4-.8.1a52 52 0 0 0-7-3.6q-9.4-4-20.2-4a52 52 0 0 0-36.6 15.1A52 52 0 0 0 8 60a52 52 0 0 0 15.2 36.6A52 52 0 0 0 60 111.8a52 52 0 0 0 36.6-15.2A52 52 0 0 0 111.8 60a52 52 0 0 0-5.9-24q-.1-.4.2-.7l5.6-4.4a1 1 0 0 1 .8.2 59 59 0 0 1 7.5 29 60 60 0 0 1-17.6 42.3A60 60 0 0 1 59.9 120a60 60 0 0 1-42.3-17.6A60 60 0 0 1 0 59.9a60 60 0 0 1 17.6-42.3A60 60 0 0 1 59.9 0m33 16.3 16.8-16L111 11l11.9 1.5-18 17.4-8.7.7-34.9 32.5-3.2-2.8 33-34.5zM60 41l3.7.3q1.4.3 2.6.8a.6.6 0 0 1 .3.9l-4.7 6-.5.2h-1.5V49a11 11 0 0 0-7.6 3.2 11 11 0 0 0-3.2 7.6 11 11 0 0 0 3.2 7.7 11 11 0 0 0 7.6 3.1 11 11 0 0 0 7.7-3.1 11 11 0 0 0 2.4-3.8q0-.3.3-.3l7.5-6a.6.6 0 0 1 1 .4v2a19 19 0 0 1-5.5 13.4A19 19 0 0 1 59.9 79a19 19 0 0 1-13.4-5.6A19 19 0 0 1 41 59.9a19 19 0 0 1 5.5-13.4A19 19 0 0 1 60 41m1 8.1a1 1 0 0 1-.6-.6zm-1-28.8a40 40 0 0 1 19.4 5.1q.5.3.2.8v.1l-4.4 5.6q-.3.3-.7.1a30 30 0 0 0-14.6-3.5 31 31 0 0 0-14 3.3q-4.7 2.3-8.2 5.9a32 32 0 0 0-9.2 22.2 31 31 0 0 0 9.2 22.3 31 31 0 0 0 22.2 9.2 31 31 0 0 0 22.3-9.2 32 32 0 0 0 9.2-22.3 32 32 0 0 0-2-11q-.1-.5.2-.7l5.7-4.5a.6.6 0 0 1 .9.2 40 40 0 0 1 3.3 16A40 40 0 0 1 88 88a40 40 0 0 1-28 11.6A40 40 0 0 1 32 88a40 40 0 0 1-11.6-28A40 40 0 0 1 32 32a40 40 0 0 1 28-11.6" />
</svg>