<svg xmlns="http://www.w3.org/2000/svg" data-name="Layer 1" viewBox="0 0 107.6 122.9">
    <path style="fill:currentColor;"
        d="M53.8 0c7.8 0 14.6 7.2 19.3 19l1.6 4.3 4.6-1c12.3-2.3 22-.5 26.3 6s1.7 16.2-5.6 26.5a82 82 0 0 1-5.5 6.8 81 81 0 0 1 5.5 6.8c7.2 10.3 9.6 20 5.4 26.5s-14 8.3-26.4 5.8q-2.1-.3-4.4-1l-1.5 4.3c-4.7 11.6-11.5 18.9-19.3 18.9s-14.5-7.2-19.3-18.9L33 99.6l-4.6 1c-12.3 2.3-22 .5-26.3-6S.3 78.4 7.6 68a80 80 0 0 1 5.5-6.8 81 81 0 0 1-5.4-6.9C.4 44.1-2 34.5 2.3 28s14-8.3 26.3-5.9l4.4 1 1.5-4.2C39.3 7.2 46 0 53.8 0m-.1 55.8c1.8-1.9 3-3.5 5.8-3.8 5.2-.6 10 4.7 7.3 10-1.7 3.4-6.5 7.5-9.2 10.2l-4 3.9-3.2-3.1c-3.9-3.8-10.2-8.5-10.4-14.3-.1-4.1 3-6.7 6.8-6.7 3.3 0 4.7 1.7 6.9 3.8m37 9.8a124 124 0 0 1-11.2 9.9 120 120 0 0 1-3.3 19l3.8.9c10.2 2 17.9 1 20.7-3.5s.7-11.9-5.2-20.3a73 73 0 0 0-4.8-6ZM17 57.3a124 124 0 0 1 11.2-10 120 120 0 0 1 3.3-19l-3.8-.8c-10.2-2-17.9-1-20.7 3.5S6.2 42.8 12 51.3a73 73 0 0 0 4.8 6Zm52.4 40.9a116 116 0 0 1-15.6-6.5A117 117 0 0 1 38.2 98l1.4 3.9c3.9 9.6 9 15.5 14.2 15.5s10.3-6 14.2-15.5zm-21.7-9.7q-4-2.3-8.2-5L34.1 80a107 107 0 0 0 2.6 12.8 106 106 0 0 0 11-4.2ZM28.1 75.4a125 125 0 0 1-11.3-10l-4.7 6C6 79.6 3.8 87 6.7 91.5s10.5 5.5 20.6 3.6q2-.3 4-.9a119 119 0 0 1-3.2-18.9m10.2-50.7a117 117 0 0 1 15.6 6.5 117 117 0 0 1 15.5-6.3L68 21c-3.9-9.6-9-15.5-14.2-15.5s-10.3 6-14.2 15.5zM60 34.4q4.1 2.2 8.2 5 2.7 1.7 5.3 3.6A109 109 0 0 0 71 30a106 106 0 0 0-11 4.3m19.5 13a125 125 0 0 1 11.3 10.1l4.7-6c6-8.4 8.3-15.8 5.4-20.2s-10.5-5.5-20.6-3.6l-4 .9a119 119 0 0 1 3.3 18.9ZM87 61.7q-3.2-3.3-7-6.6a136 136 0 0 1 0 13q3.7-3.2 7-6.4M74.3 50.3Q70 47 65.2 44q-5.7-3.6-11.3-6.6-5.6 2.9-11.2 6.5h-.2q-4.8 3.1-9.1 6.4a141 141 0 0 0 0 22.4q4.2 3.2 8.9 6.3l.3.2q5.5 3.6 11.1 6.5a138 138 0 0 0 20.5-13 141 141 0 0 0 0-22.3m-26.5-16A106 106 0 0 0 36.7 30 109 109 0 0 0 34 43l5.5-3.7h.1q4-2.6 8.1-4.9m-27.2 27q3.1 3.3 7 6.6-.2-3.2-.1-6.5l.1-6.5q-3.7 3.2-7 6.4Zm39.2 27.3a106 106 0 0 0 11.1 4.3A109 109 0 0 0 73.4 80L68 83.7q-4.1 2.6-8.2 4.8" />
</svg>