<svg xmlns="http://www.w3.org/2000/svg" xml:space="preserve" viewBox="0 0 122.9 83.8">
    <path style="fill:currentColor;"
        d="M95.7 10.8a85 85 0 0 1 26.5 29.9l.7 1.2-.7 1.2A85 85 0 0 1 95.7 73a61 61 0 0 1-34.3 10.8A61 61 0 0 1 27.2 73 85 85 0 0 1 .7 43L0 41.9l.7-1.2a85 85 0 0 1 26.5-29.9A61 61 0 0 1 61.4 0a61 61 0 0 1 34.3 10.8m-35 11.4 4.2.4a14 14 0 0 0-2.3 7.6c0 7.5 5.8 13.6 13 13.6q3.6 0 6.5-1.7v1.4a21.3 21.3 0 1 1-21.3-21.3M109 41.9a68 68 0 0 0-20.8-23.1q-12.1-8.3-26.8-8.5-14.5.1-26.7 8.5a69 69 0 0 0-20.8 23A68 68 0 0 0 34.7 65q12.2 8.3 26.7 8.5 14.7-.1 26.8-8.5A68 68 0 0 0 109 41.9" />
</svg>