<?xml version="1.0" encoding="UTF-8" standalone="no"?>
<svg
   viewBox="0 0 202.19846 51.718227"
   preserveAspectRatio="xMidYMid"
   class="h-12 w-auto text-base-content group-hover:scale-105 transition-transform duration-300"
   version="1.1"
   id="svg9"
   width="202.19846"
   height="51.718227"
   xmlns="http://www.w3.org/2000/svg"
   xmlns:svg="http://www.w3.org/2000/svg">
  <defs
     id="defs1">
    <style
       id="style1">
            /* Hereda de text-base-content; si no, usa fallback */
            :root { color: currentColor; }
        </style>
  </defs>
  <path
     d="m 12.71789,38.50492 -7.84,-0.168 3.2,-0.367 c 2.28,-0.261 16.285,-0.353 48.72,-0.32 25.036,0.026 45.52,-0.06 45.52,-0.193 0,-0.132 1.584,-0.24 3.52,-0.24 2.133,0 3.52,0.126 3.52,0.32 0,0.176 0.792,0.32 1.76,0.32 0.968,0 1.76,-0.144 1.76,-0.32 0,-0.19 1.226,-0.32 3.04,-0.32 1.813,0 3.04,0.13 3.04,0.32 0,0.183 0.96,0.32 2.24,0.32 1.28,0 2.24,-0.137 2.24,-0.32 0,-0.188 1.018,-0.307 2.48,-0.288 1.588,0.02 2.192,0.115 1.68,0.263 -0.599,0.173 -0.215,0.29 1.525,0.468 2.618,0.267 4.634,-0.09 2.635,-0.467 -1.01,-0.19 -0.955,-0.216 0.56,-0.254 0.934,-0.023 1.68,0.1 1.68,0.278 0,0.176 0.495,0.32 1.1,0.32 0.605,0 1.19,-0.144 1.3,-0.32 0.124,-0.2 2.846,-0.298 7.298,-0.262 4.246,0.035 6.136,0.131 4.702,0.24 -2.297,0.175 -2.34,0.192 -0.98,0.4 1.833,0.28 4.71,-0.034 4.122,-0.451 -0.276,-0.196 0.02,-0.236 0.858,-0.117 0.704,0.101 1.496,0.187 1.76,0.192 0.426,0.007 0.426,0.043 0,0.323 -0.332,0.217 -0.134,0.24 0.64,0.075 1.941,-0.415 46.953,-0.294 47.375,0.128 0.276,0.276 -1.642,0.401 -7.744,0.507 -3.924,0.068 -25.59,0.105 -52.694,0.117 -51.548,0.022 -129.017,-0.05 -129.017,-0.184 m 73.843,-1.194 c 0.398,-0.076 0.974,-0.074 1.28,0.006 0.306,0.08 -0.02,0.143 -0.723,0.14 -0.704,-0.005 -0.955,-0.07 -0.557,-0.146 z"
     style="fill:#dc2626"
     id="path1" />
  <path
     d="m 82.90565,32.90644 q 0,0.18952 -0.07004,0.33784 -0.07416,0.1442 -0.31312,0.23896 -0.24308,0.09888 -0.67568,0.1442 -0.4326,0.04532 -1.16184,0.04944 -0.62624,0 -1.03824,-0.04944 -0.38316,-0.04532 -0.62624,-0.1442 -0.24308,-0.1236 -0.38728,-0.31312 -0.11948,-0.19364 -0.21424,-0.48204 l -2.87576,-7.36244 q -0.50676,-1.2566 -1.05884,-2.29484 -0.5356,-1.06296 -1.28132,-1.8128 -0.74984,-0.77044 -1.76336,-1.17832 -1.01352,-0.43672 -2.43904,-0.43672 h -2.77276 v 13.30348 q 0,0.18952 -0.1236,0.33784 -0.09476,0.1442 -0.33784,0.23896 -0.21424,0.07416 -0.62624,0.1236 -0.38728,0.07004 -0.9888,0.07004 -0.60564,0 -1.01352,-0.07004 -0.38728,-0.04944 -0.63036,-0.1236 -0.23896,-0.09476 -0.33784,-0.23896 -0.09476,-0.14832 -0.09476,-0.33784 V 3.98404 q 0,-0.93936 0.48204,-1.30192 0.50676,-0.38728 1.06296,-0.38728 h 6.63732 q 1.18244,0 1.957,0.07416 0.79516,0.04532 1.4214,0.11948 1.8128,0.31312 3.18888,0.9888 1.4008,0.67568 2.34016,1.71392 0.94348,1.03824 1.4008,2.3896 0.48204,1.32664 0.48204,2.9458 0,1.5656 -0.4326,2.82632 -0.412,1.22776 -1.20716,2.19596 -0.79928,0.93936 -1.90756,1.63976 -1.1124,0.7004 -2.48848,1.18244 0.77456,0.33784 1.4008,0.86932 0.63036,0.50676 1.16184,1.23188 0.55208,0.72512 1.03412,1.66448 0.48616,0.94348 0.9682,2.12592 l 2.8016,6.8804 q 0.33784,0.8652 0.4326,1.23188 0.09476,0.33784 0.09476,0.53148 M 76.65561,10.9592 q 0,-1.8334 -0.824,-3.09 Q 75.01173,6.592 73.08357,6.0358 72.47793,5.871 71.70749,5.79684 70.95765,5.72268 69.72989,5.72268 h -3.502 v 10.5266 h 4.05408 q 1.63976,0 2.82632,-0.38728 1.20716,-0.412 2.00232,-1.1124 0.79516,-0.721 1.15772,-1.6892 0.38728,-0.96408 0.38728,-2.1012 m 29.47448,10.16404 q 0,0.94348 -0.48204,1.35136 -0.45732,0.38728 -1.06296,0.38728 H 90.34225 q 0,1.8128 0.36256,3.25892 0.36256,1.44612 1.20716,2.48848 0.8446,1.04236 2.19596,1.59032 1.35136,0.54796 3.30836,0.5562 1.545,0 2.75216,-0.23896 1.20716,-0.2678 2.07648,-0.58092 0.89404,-0.31312 1.44612,-0.5562 0.58092,-0.26368 0.86932,-0.26368 0.16892,0 0.2884,0.09476 0.14832,0.07416 0.21836,0.24308 0.07,0.16892 0.0989,0.48204 0.0453,0.2884 0.0453,0.72512 0,0.31312 -0.0206,0.55208 -0.0247,0.21836 -0.0742,0.412 -0.0247,0.16892 -0.1236,0.31312 -0.07,0.1442 -0.21424,0.2884 -0.1236,0.1236 -0.77456,0.43672 -0.65096,0.2884 -1.6892,0.5768 -1.03824,0.2884 -2.41432,0.51088 -1.35136,0.23896 -2.89636,0.23896 -2.678,0 -4.70504,-0.74572 -2.00644,-0.74984 -3.3784,-2.2248 -1.3802,-1.47084 -2.0806,-3.69152 -0.7004,-2.22068 -0.7004,-5.16648 0,-2.8016 0.72512,-5.02228 0.72512,-2.24128 2.07648,-3.7904 1.37608,-1.5656 3.30836,-2.3896 1.93228,-0.8446 4.32188,-0.8446 2.5544,0 4.34248,0.824 1.8128,0.81988 2.97052,2.22068 1.15772,1.37608 1.6892,3.2548 0.5562,1.86224 0.5562,3.98404 z m -4.00876,-1.18244 q 0.0742,-3.13944 -1.4008,-4.9234 -1.442,-1.78808 -4.31776,-1.78808 -1.47496,0 -2.58324,0.5562 -1.1124,0.5562 -1.85812,1.47084 -0.74984,0.91876 -1.16184,2.15064 -0.412,1.20716 -0.4532,2.5338 z m 28.67932,12.98624 q 0,0.19364 -0.0948,0.34196 -0.0742,0.1442 -0.2884,0.23896 -0.19364,0.07416 -0.5356,0.1236 -0.33372,0.04532 -0.81576,0.04532 -0.50676,0 -0.84872,-0.04944 -0.33784,-0.04532 -0.55208,-0.11948 -0.21836,-0.09476 -0.31312,-0.23896 -0.0989,-0.14832 -0.0989,-0.34196 V 30.0554 q -1.71392,1.85812 -3.57204,2.89636 -1.8334,1.03824 -4.03348,1.03824 -2.3896,0 -4.0788,-0.91464 -1.6892,-0.94348 -2.75216,-2.5132 -1.03824,-1.59032 -1.52028,-3.71624 -0.48204,-2.15064 -0.48204,-4.51552 0,-2.8016 0.60152,-5.04288 0.60564,-2.27012 1.78808,-3.86456 1.18244,-1.59444 2.92108,-2.43904 1.76336,-0.8652 4.05408,-0.8652 1.90756,0 3.47728,0.84048 1.59444,0.824 3.13944,2.43904 V 0.77456 q 0,-0.16892 0.07,-0.31312 0.0989,-0.16892 0.33784,-0.24308 0.24308,-0.09476 0.60564,-0.1442 Q 128.19681,0 128.77361,0 q 0.60564,0 0.9888,0.07416 0.38728,0.04944 0.60564,0.1442 0.21836,0.07416 0.31312,0.24308 0.1236,0.1442 0.1236,0.31312 z m -4.00464,-15.28108 q -1.61916,-2.00232 -3.13944,-3.04056 -1.49556,-1.06296 -3.13944,-1.06296 -1.52028,0 -2.58324,0.72512 -1.05884,0.72512 -1.73452,1.90756 -0.65508,1.18244 -0.9682,2.678 -0.2884,1.49968 -0.2884,3.04468 0,1.63976 0.23896,3.20948 0.2678,1.5656 0.89404,2.8016 0.63036,1.20716 1.6686,1.95288 1.03412,0.72512 2.60384,0.72512 0.79928,0 1.5244,-0.21836 0.74572,-0.21424 1.52028,-0.721 0.77044,-0.50676 1.61504,-1.30604 0.8446,-0.81988 1.78808,-2.00232 z"
     aria-label="Red"
     style="font-family:Calibri;-inkscape-font-specification:Calibri;white-space:pre;fill:#dc2626;stroke-width:624.592"
     id="path2" />
  <path
     d="m 152.92765,31.568 q 0,0.48204 -0.0453,0.81988 -0.0494,0.31312 -0.16892,0.55208 -0.0989,0.21836 -0.2678,0.34196 -0.1442,0.09476 -0.36256,0.09476 h -13.80612 q -0.5562,0 -1.06296,-0.36256 -0.48204,-0.38728 -0.48204,-1.32664 V 2.76508 q 0,-0.19364 0.0948,-0.33784 0.0989,-0.1442 0.33784,-0.21424 0.24308,-0.09888 0.65096,-0.14832 0.412,-0.07004 0.9888,-0.07004 0.60564,0 0.9888,0.07004 0.412,0.04944 0.6592,0.14832 0.23896,0.07004 0.33372,0.21424 0.0989,0.1442 0.0989,0.33784 v 27.01484 h 11.19816 q 0.21836,0 0.36256,0.1236 0.16892,0.09476 0.2678,0.309 0.11948,0.19364 0.1648,0.5356 0.0494,0.33372 0.0494,0.81988"
     aria-label="L"
     style="font-family:Calibri;-inkscape-font-specification:Calibri;white-space:pre;fill:currentColor;stroke-width:624.592"
     id="path3" />
  <path
     d="m 158.94645,28.0029 q 0,0.14006 -0.0685,0.24734 -0.0715,0.08642 -0.22648,0.15496 -0.15794,0.07152 -0.43806,0.1043 -0.28012,0.03278 -0.7152,0.03576 -0.4172,0 -0.69732,-0.03576 -0.28012,-0.03278 -0.45594,-0.1043 -0.15794,-0.06854 -0.22648,-0.15496 -0.0536,-0.10728 -0.0536,-0.24734 V 12.28936 q 0,-0.12218 0.0536,-0.22648 0.0685,-0.1043 0.22648,-0.17582 0.17582,-0.06854 0.45594,-0.1043 0.27714,-0.03576 0.69732,-0.03576 0.43508,0 0.7152,0.03576 0.28012,0.03576 0.43806,0.1043 0.15794,0.06854 0.22648,0.17582 0.0685,0.10728 0.0685,0.22648 z m 0.33376,-21.02092 q 0,1.0132 -0.3874,1.37974 -0.38144,0.36654 -1.41252,0.36654 -1.0132,0 -1.39762,-0.34866 -0.36654,-0.36952 -0.36654,-1.36186 0,-1.0132 0.3874,-1.37974 0.38144,-0.36654 1.41252,-0.36654 1.0132,0 1.37974,0.36654 0.38442,0.34866 0.38442,1.341 m 20.7557,21.02092 q 0,0.14006 -0.0685,0.24734 -0.0715,0.08642 -0.22648,0.15496 -0.15794,0.07152 -0.43806,0.1043 -0.28012,0.03278 -0.69732,0.03576 -0.43806,0 -0.7152,-0.03576 -0.28012,-0.03278 -0.43806,-0.1043 -0.15794,-0.06854 -0.22648,-0.15496 -0.0715,-0.10728 -0.0715,-0.24734 v -9.19628 q 0,-1.34696 -0.2086,-2.16646 -0.2086,-0.8195 -0.6109,-1.4155 -0.4023,-0.59302 -1.04896,-0.90592 -0.6258,-0.31588 -1.46616,-0.31588 -1.08174,0 -2.16348,0.76884 -1.08472,0.76884 -2.27076,2.25288 v 10.97832 q 0,0.14006 -0.0685,0.24734 -0.0715,0.08642 -0.22946,0.15496 -0.15496,0.07152 -0.43508,0.1043 -0.28012,0.03278 -0.7152,0.03576 -0.42018,0 -0.7003,-0.03576 -0.27714,-0.03278 -0.45296,-0.1043 -0.15794,-0.06854 -0.22648,-0.15496 -0.0536,-0.10728 -0.0536,-0.24734 V 12.28936 q 0,-0.14006 0.0536,-0.22648 0.0507,-0.1043 0.2086,-0.17582 0.15794,-0.08642 0.4023,-0.1043 0.24436,-0.03576 0.64666,-0.03576 0.38442,0 0.6258,0.03576 0.26224,0.01788 0.4023,0.1043 0.14006,0.07152 0.1937,0.17582 0.0685,0.0894 0.0685,0.22648 v 2.07706 q 1.32908,-1.48404 2.6373,-2.16348 1.3261,-0.7003 2.67008,-0.7003 1.57344,0 2.6373,0.54236 1.08472,0.52448 1.74628,1.4155 0.66454,0.88804 0.94466,2.09494 0.298,1.18604 0.298,2.8608 z m 20.89874,-8.5377 q 0,0.68242 -0.35164,0.97744 -0.3278,0.28012 -0.76586,0.28012 h -10.30186 q 0,1.3112 0.25926,2.35718 0.26224,1.04896 0.87314,1.79992 0.61388,0.75096 1.59132,1.15028 0.97744,0.4023 2.38996,0.4023 1.1175,0 1.99064,-0.17284 0.87314,-0.1937 1.50192,-0.42018 0.64666,-0.22648 1.04896,-0.4023 0.4172,-0.19072 0.6258,-0.19072 0.12516,0 0.21158,0.06854 0.1043,0.05364 0.15794,0.17582 0.0536,0.12218 0.0685,0.34866 0.0358,0.2086 0.0358,0.52448 0,0.22648 -0.0179,0.39932 -0.0179,0.15794 -0.0507,0.298 -0.0179,0.12218 -0.0894,0.22648 -0.0507,0.1043 -0.15794,0.2086 -0.0864,0.0894 -0.55726,0.31588 -0.47084,0.2086 -1.2218,0.4172 -0.75096,0.2086 -1.74628,0.36952 -0.97744,0.17284 -2.09494,0.17284 -1.937,0 -3.40614,-0.53938 -1.44828,-0.54236 -2.4436,-1.6092 -0.99532,-1.06386 -1.50192,-2.67008 -0.5066,-1.60622 -0.5066,-3.73692 0,-2.0264 0.52448,-3.63262 0.52448,-1.62112 1.50192,-2.7416 0.99532,-1.1324 2.39294,-1.7284 1.39464,-0.6109 3.12304,-0.6109 1.85058,0 3.1439,0.596 1.3112,0.59302 2.1456,1.60622 0.84036,0.99532 1.2218,2.3542 0.40528,1.34696 0.40528,2.88166 z m -2.89954,-0.85526 q 0.0536,-2.27076 -1.0132,-3.5611 -1.04598,-1.29332 -3.12602,-1.29332 -1.06386,0 -1.86846,0.4023 -0.8046,0.4023 -1.341,1.06386 -0.5364,0.66156 -0.84036,1.55556 -0.298,0.87314 -0.33078,1.8327 z"
     aria-label="ine"
     style="font-family:Calibri;-inkscape-font-specification:Calibri;letter-spacing:0.748789px;white-space:pre;fill:currentColor;stroke-width:451.768"
     id="path4" />
  <g
     aria-label="TEKON"
     style="font-family:Calibri;-inkscape-font-specification:Calibri;letter-spacing:0;white-space:pre;stroke-width:151.6"
     id="g7"
     transform="translate(-19.94611,-4.34408)">
    <path
       d="m 10.525,11.457 v 6.914 H 8.37 V 11.457 H 5.404 V 9.705 h 8.086 v 1.752 z"
       style="font-weight:700;font-stretch:expanded;font-family:'Swis721 Ex BT';-inkscape-font-specification:'Swis721 Ex BT Bold Expanded';fill:currentColor"
       transform="matrix(0.87,0,0,0.87,31.538,21.788)"
       id="path5" />
    <path
       d="M 14.404,18.371 V 9.705 h 7.694 v 1.752 h -5.52 v 1.465 h 4.916 v 1.764 h -4.916 v 1.863 h 5.52 v 1.822 z"
       style="font-weight:700;font-stretch:expanded;font-family:'Swis721 Ex BT';-inkscape-font-specification:'Swis721 Ex BT Bold Expanded';fill:#dc2626"
       transform="matrix(0.87,0,0,0.87,31.538,21.788)"
       id="path6" />
    <path
       d="M 23.51,18.371 V 9.705 h 2.174 v 3.328 l 3.644,-3.328 h 2.795 l -3.814,3.363 4.283,5.303 h -2.66 l -3.147,-3.973 -1.101,0.973 v 3 z m 13.974,-1.558 q 1.301,0 2.045,-0.739 0.75,-0.744 0.75,-2.033 0,-1.3 -0.75,-2.039 -0.744,-0.744 -2.045,-0.744 -1.301,0 -2.056,0.744 -0.75,0.744 -0.75,2.039 0,1.29 0.75,2.033 0.75,0.738 2.056,0.738 M 32.287,14.04 q 0,-2.08 1.412,-3.322 1.412,-1.242 3.785,-1.242 2.373,0 3.78,1.242 1.407,1.242 1.406,3.322 -0.001,2.08 -1.406,3.322 -1.407,1.237 -3.78,1.237 -2.373,0 -3.784,-1.236 -1.412,-1.242 -1.412,-3.322 m 11.871,4.33 V 9.705 h 2.666 l 4.33,6.111 v -6.11 h 2.086 v 8.665 h -2.636 l -4.372,-6.17 v 6.17 z"
       style="font-weight:700;font-stretch:expanded;font-family:'Swis721 Ex BT';-inkscape-font-specification:'Swis721 Ex BT Bold Expanded';fill:currentColor"
       transform="matrix(0.87,0,0,0.87,31.538,21.788)"
       id="path7" />
  </g>
  <g
     transform="matrix(1.09,0,0,1.09,-17.19911,12.26592)"
     id="g8">
    <ellipse
       cx="22.650999"
       cy="14.99"
       rx="0.53799999"
       ry="0.54299998"
       style="fill:none;fill-opacity:1;stroke:currentColor;stroke-width:5.78695;stroke-dasharray:none;stroke-opacity:1"
       id="ellipse7" />
    <path
       d="m 22.651,18.397 v 3.472 m 0,-13.673 v 3.472 m 3.354,3.417 h 3.473 m -13.699,0 h 3.472"
       style="fill:#dc2626;fill-opacity:1;stroke:currentColor;stroke-width:0.9;stroke-dasharray:none;stroke-opacity:1"
       id="path8" />
  </g>
  <text
     xml:space="preserve"
     style="font-style:normal;font-variant:normal;font-weight:700;font-stretch:expanded;font-family:'Swis721 Ex BT';-inkscape-font-specification:'Swis721 Ex BT Bold Expanded';text-align:start;letter-spacing:2.49529px;writing-mode:lr-tb;direction:ltr;white-space:pre;shape-inside:url(#a);display:inline;fill:currentColor;fill-opacity:1;stroke:none;stroke-width:0.7;stroke-dasharray:none;stroke-opacity:1"
     transform="matrix(0.76,0,0,0.76,66.990306,38.692835)"
     id="text9"><tspan
       x="0"
       y="0"
       id="tspan1">
</tspan><tspan
       x="0"
       y="15"
       id="tspan3"><tspan
         style="font-weight:300;font-stretch:normal;font-family:Calibri;-inkscape-font-specification:'Calibri Light'"
         id="tspan2">Ingeniería &amp; Supervisión</tspan></tspan></text>
</svg>
